<?xml version="1.0" standalone="no"?>
<!DOCTYPE svg PUBLIC "-//W3C//DTD SVG 1.1//EN" "http://www.w3.org/Graphics/SVG/1.1/DTD/svg11.dtd" >
<svg xmlns="http://www.w3.org/2000/svg">
<metadata>
Created by FontPrep 20130207 at Tue Jun 10 14:55:44 2014
 By Nishant Vats
Copyright (C) 2014 by Nishant Vats. All rights reserved.
</metadata>
<defs>
<font id="faf276b47fc3b1a350cdf888b0c7fb98" horiz-adv-x='1024' >
  <font-face 
    font-family="SNTIcons-Regular"
    font-weight="400"
    font-stretch="normal"
    units-per-em="2048"
    panose-1="0 0 5 0 0 0 0 0 0 0"
    ascent="1638"
    descent="-410"
    bbox="-338 -816 2562 2225"
    underline-thickness="85"
    underline-position="-43"
    unicode-range="U+000D-E200"
  />
<missing-glyph horiz-adv-x="750" 
d="M137 68h409v1229h-409v-1229zM68 0v1365h546v-1365h-546z" />
    <glyph glyph-name=".notdef" horiz-adv-x="750" 
d="M137 68h409v1229h-409v-1229zM68 0v1365h546v-1365h-546z" />
    <glyph glyph-name=".null" horiz-adv-x="0" 
 />
    <glyph glyph-name="uni000D" unicode="&#xd;" 
 />
    <glyph glyph-name="glyph1" 
 />
    <glyph glyph-name="glyph1" 
 />
    <glyph glyph-name="space" unicode=" " 
 />
    <glyph glyph-name="asterisk" unicode="*" 
d="M171 853v342h442l-313 312l241 241l312 -313v442h342v-442l312 313l241 -241l-313 -312h442v-342h-442l313 -312l-241 -241l-312 313v-442h-342v442l-312 -313l-241 241l313 312h-442z" />
    <glyph glyph-name="plus" unicode="+" 
d="M72 364v512h682v682h512v-682h683v-512h-683v-683h-512v683h-682z" />
    <glyph glyph-name="uni00A0" unicode="&#xa0;" 
 />
    <glyph glyph-name="uni2000" unicode="&#x2000;" horiz-adv-x="1112" 
 />
    <glyph glyph-name="uni2001" unicode="&#x2001;" horiz-adv-x="2225" 
d="M1347 411v231h266q-5 70 -24 136h-306q-29 0 -49 -20t-19 -48v-123l-247 273q-26 38 -75 22q-41 -20 -41 -65v-232h-265q0 -68 24 -134h307q27 0 48 20q20 20 20 48v123l245 -277q15 -20 39 -20t34 1q43 22 43 65zM1099 -205q-174 0 -335 73t-279 204q-224 254 -203 593
t276 562q230 207 541 207q177 0 337 -73t276 -204q225 -256 206 -592q-10 -166 -82 -311t-194 -252q-230 -207 -543 -207z" />
    <glyph glyph-name="uni2002" unicode="&#x2002;" horiz-adv-x="2116" 
d="M1132 268q160 0 284 110t134 282t-110 310q-120 136 -294 136t-298 -110t-135 -283q-9 -173 109 -309t310 -136zM443 -126q-52 0 -88 36t-36 88t36 89l225 225q-142 205 -111 456t219 419t444 168q142 -1 274 -59t226 -166q184 -208 167 -483t-215 -451t-452 -176
q-207 0 -376 117l-225 -227q-36 -36 -88 -36z" />
    <glyph glyph-name="uni2003" unicode="&#x2003;" horiz-adv-x="2116" 
d="M1331 307h214v236h-214v-236zM1331 591h214v213h-214v-213zM1331 48h214v211h-214v-211zM1355 1157q0 10 -7 18t-17 6h-46q-10 0 -18 -7t-6 -17v-212q0 -9 7 -17t17 -6h46q10 0 18 6t6 17v212zM1048 591h237v213h-237v-213zM1048 307h237v236h-237v-236zM1046 48h237v211
h-237v-211zM763 591h237v213h-237v-213zM761 48h237v213h-237v-213zM761 307h237v237h-237v-237zM788 1157q0 10 -6 18q-7 8 -17 6h-48q-10 0 -18 -7t-6 -17v-212q0 -9 7 -17t17 -6h48q24 0 23 23v212zM502 48h213v213h-213v-213zM502 307h213v237h-213v-237zM502 591h213
v213h-213v-213zM1545 -48h-1040q-39 0 -67 28t-28 68v944q0 39 28 67t67 28h94v70q0 49 35 85t83 35h48q49 0 83 -35t34 -85v-70h284v70q0 49 35 85t82 35h48q48 0 83 -35t35 -85v-70h94q39 0 66 -28t28 -67l1 -944q0 -40 -27 -68t-66 -28z" />
    <glyph glyph-name="uni2004" unicode="&#x2004;" horiz-adv-x="2116" 
d="M1393 420q-29 -83 -94 -140h-482q-16 11 -45 46q-28 36 -50 96zM1790 420h292l-251 -413h-360l-826 2h-611l249 413h43v-12q15 -73 41 -137l-75 -123h135v-2h82q-2 0 -2 2l394 -2h845l78 130h-73q39 101 39 142zM1058 1222q145 0 278 -60t229 -169q188 -212 169 -490
q-7 -147 -85 -288h-325q36 22 77 76t61 117q73 237 -85 418q-129 143 -305 143t-295 -105q-96 -84 -129 -206t2 -236q22 -77 75 -142q27 -38 65 -65h-324q-53 90 -73 207q-31 172 24 341t192 288q189 171 449 171z" />
    <glyph glyph-name="uni2005" unicode="&#x2005;" horiz-adv-x="2104" 
d="M978 983q-167 0 -299 -116q-133 -115 -143 -299t116 -328t326 -143q168 1 300 117t142 300t-111 319q-131 150 -331 150zM978 1244q165 0 312 -73l541 223l-222 -541q82 -169 72 -356q-19 -292 -237 -485q-198 -177 -466 -178q-152 0 -290 62t-237 177q-126 143 -164 327
t21 364q59 178 202 304q200 176 468 176z" />
    <glyph glyph-name="uni2006" unicode="&#x2006;" 
d="M1374 355q18 -1 26 -5t15 -7t18 -11t19 -13q8 -4 41 -25t70 -41q35 -21 85 -47t54 -40t5 -32q0 -18 -11 -60t-22 -64q-20 -48 -114 -100t-160 -52q-101 -1 -238 51q-137 51 -236 111q-98 60 -232 193t-194 232t-82 161t-28 78q-6 17 -12 35t-12 33t-14 48q-9 33 -10 108
q-2 76 50 170t100 115q111 43 155 27q19 -6 40 -48t46 -84t30 -53q10 -24 29 -50q18 -26 39 -62q7 -20 7 -32q0 -11 -29 -43t-60 -54q-88 -67 -88 -94q-1 -28 13 -49q15 -20 24 -38q144 -261 416 -408q18 -9 22 -13t20 -8t22 -7q33 0 102 95q60 83 94 83z" />
    <glyph glyph-name="uni2007" unicode="&#x2007;" 
d="M742 1266v-94q0 -38 28 -66t66 -29h374q38 0 64 28t26 67v94h-558zM652 152q-46 0 -46 44q0 20 14 35t34 15h740q20 0 35 -15t15 -35q0 -44 -48 -44h-744zM652 708q-46 0 -46 45q0 20 14 34t34 13h740q20 0 35 -14t15 -33q0 -44 -48 -45h-744zM652 430q-20 0 -34 15
t-14 33q0 44 46 44h741q46 0 46 -44q0 -20 -14 -34t-34 -14h-737zM1488 1266h-95v-94q0 -76 -53 -130t-132 -56h-373q-75 0 -129 55t-56 131v94h-95q-38 0 -66 -28t-28 -66v-1114q0 -38 28 -67t66 -29h930q36 0 63 29t27 67l4 1114q-1 38 -27 66t-64 28zM1488 1452
q116 0 198 -82t82 -198v-1114q0 -118 -82 -200t-198 -82h-928q-116 0 -198 82t-82 200v1114q0 116 82 198t198 82h928z" />
    <glyph glyph-name="uni2008" unicode="&#x2008;" 
d="M2048 1638v-512l-512 512h512z" />
    <glyph glyph-name="uni2009" unicode="&#x2009;" horiz-adv-x="1536" 
d="M940 546q0 -46 -54 -46q-12 0 -26 15l-167 188v-83q0 -19 -14 -33t-32 -14h-208q20 -61 68 -121q104 -118 251 -118t250 93q103 92 112 237v39h-180v-157zM601 666v158q0 31 29 43q31 12 51 -12l167 -188v82q0 19 14 33t32 13h209q-20 67 -70 121q-104 120 -250 120
t-245 -89q-125 -109 -116 -281h179zM770 126q-169 0 -314 99l-188 -189q-32 -31 -74 -31t-73 31q-31 32 -31 74t31 73l188 187q-118 171 -92 382t184 351q159 140 369 139q131 0 247 -58l429 176l-176 -426q67 -135 58 -284q-15 -230 -181 -377t-377 -147z" />
    <glyph glyph-name="uni200A" unicode="&#x200a;" 
d="M1046 -29q-196 0 -354 109l-212 -211q-33 -35 -82 -35q-48 0 -82 34t-34 84q0 48 34 82l210 211q-121 173 -107 392q16 259 211 431q176 157 414 157q135 0 258 -55l20 -10l484 199l-198 -479q75 -145 65 -320q-15 -259 -212 -432q-176 -157 -415 -157zM1040 203
q152 -1 270 103t128 268t-103 291q-114 128 -276 128q-161 0 -279 -104t-128 -267t97 -286q4 -5 11 -11t14 -15q113 -107 266 -107z" />
    <glyph glyph-name="uni202F" unicode="&#x202f;" 
d="M1027 1545q154 -1 282 -99q129 -98 175 -240t30 -272q-16 -131 0 -149q56 -102 101 -171q22 -39 -10 -52q-216 -88 -238 -112q-22 -25 -67 -79t-69 -81q39 -96 45 -108t59 -50q62 -44 176 -93q115 -49 153 -63q38 -13 83 -32t100 -43t82 -35t59 -37q60 -43 59 -115
t-1 -450v-37h-2005q-24 0 -32 8t-6 31q3 282 -1 410t88 174q55 27 157 72t123 56l338 159q60 27 84 104q19 53 15 70t-99 112q-31 39 -93 59t-178 73q-29 13 -32 25t47 92t68 130q18 52 9 145q-19 227 101 391q147 203 392 207h5z" />
    <glyph glyph-name="uni205F" unicode="&#x205f;" horiz-adv-x="556" 
 />
    <glyph glyph-name="Euro" unicode="&#x20ac;" 
d="M534 1024q0 72 9 171h-372l170 170h231q64 297 231 487q167 191 467 193q413 0 604 -323q102 -177 113 -357h-309q0 91 -42 167t-110 118q-132 84 -230 84t-209 -72q-59 -39 -113 -117t-85 -180h647l-171 -170h-512q-10 -79 -10 -171h693l-171 -171h-512q15 -121 55 -221
t92 -159q94 -109 207 -142q46 -14 78 -14q104 0 241 86q68 43 110 117t42 163h297q-55 -305 -232 -489t-454 -185q-350 0 -553 269q-68 84 -122 234t-73 341h-370l170 171h193z" />
    <glyph glyph-name="minus" unicode="&#x2212;" 
d="M256 341v512h1536v-512h-1536z" />
    <glyph glyph-name="uni25FC" unicode="&#x25fc;" horiz-adv-x="853" 
 />
    <glyph glyph-name="uni2601" unicode="&#x2601;" 
d="M304 512q-136 0 -232 97t-96 225t73 218q73 91 185 115q-3 27 -4 64q0 261 184 444t444 184q186 0 340 -101t232 -268q77 24 154 24q205 0 350 -147t145 -353t-145 -354t-350 -148h-1280z" />
    <glyph glyph-name="uni2709" unicode="&#x2709;" 
d="M1536 1024l512 512v-1024zM0 1877h2048l-1024 -1029zM0 512v1024l512 -512zM0 171l683 682l341 -341l341 341l683 -682h-2048z" />
    <glyph glyph-name="uni270F" unicode="&#x270f;" 
d="M1730 2070q32 0 57 -22l261 -261q22 -22 22 -56t-22 -57l-169 -157l-365 365l160 166q24 22 56 22zM319 688l1048 1048l365 -366l-1048 -1047zM-22 -22l188 572l380 -381z" />
    <glyph glyph-name="uniE001" unicode="&#xe001;" 
d="M1195 171h512v-171h-1366v171h512v938l-853 939h2048l-853 -939v-938z" />
    <glyph glyph-name="uniE002" unicode="&#xe002;" 
d="M512 1662q0 18 12 34t29 21l1283 329q17 5 29 -4t12 -26v-1504q1 -92 -73 -164t-201 -111q-127 -37 -241 -3t-143 127q-31 93 43 189t204 140q130 42 241 15v889l-1024 -265v-1034q0 -70 -77 -154t-200 -122t-237 -4q-114 35 -144 129t43 190t203 140t241 12v1176z" />
    <glyph glyph-name="uniE003" unicode="&#xe003;" 
d="M300 1182q0 -232 166 -397t400 -165t398 164q165 164 164 399q0 235 -164 399t-398 164t-400 -166t-166 -398zM1691 1183q0 -244 -133 -446l512 -512q12 -13 12 -31t-12 -30l-186 -186q-12 -12 -31 -12t-30 12l-512 512q-201 -133 -446 -133q-341 0 -583 242
q-242 241 -242 583t242 584t583 242t583 -242t243 -583z" />
    <glyph glyph-name="uniE005" unicode="&#xe005;" 
d="M171 1342q0 102 47 204q94 203 311 285t403 -35q102 -64 176 -176q80 114 184 177q191 115 404 35q214 -81 305 -286q45 -101 45 -208q0 -183 -216 -413q-104 -109 -217 -217q-328 -317 -505 -558q-181 248 -490 544t-389 444q-58 102 -58 204z" />
    <glyph glyph-name="uniE006" unicode="&#xe006;" 
d="M-123 1365h818l249 683h3l249 -683h806l-652 -474l247 -766l-655 469l-652 -469l249 762z" />
    <glyph glyph-name="uniE007" unicode="&#xe007;" 
d="M404 1195l335 -243l-125 -385l328 239l333 -241l-126 391l329 239h-401l-132 360l-133 -360h-408zM-123 1365h818l249 683h3l249 -683h806l-652 -474l247 -766l-655 469l-652 -469l249 762z" />
    <glyph glyph-name="uniE008" unicode="&#xe008;" 
d="M2048 -297v-519h-2007q-28 0 -35 10q-6 10 -6 31v437q0 140 96 178q27 14 314 136q67 39 136 65q70 26 104 42q71 33 142 180q-82 82 -106 120t-43 79t-29 60q0 14 -13 14q-56 48 -76 106t-20 133t14 102q0 10 22 27q22 18 32 28v95q1 174 103 304t266 161q27 13 82 13
q169 0 293 -108t144 -288q14 -68 14 -191q68 -17 68 -109q22 -155 -82 -259q-11 0 -14 -11v-3q-36 -143 -191 -273v-14q61 -143 205 -205q273 -109 396 -163q109 -55 150 -96q41 -20 41 -82z" />
    <glyph glyph-name="uniE009" unicode="&#xe009;" 
d="M1707 1536h170v171h-170v-171zM1707 1195h170v170h-170v-170zM1707 853h170v171h-170v-171zM1707 512h170v171h-170v-171zM1707 171h170v170h-170v-170zM512 1024h1024v683h-1024v-683zM512 171h1024v682h-1024v-682zM171 1536h170v171h-170v-171zM171 1195h170v170h-170
v-170zM171 853h170v171h-170v-171zM171 512h170v171h-170v-171zM171 171h170v170h-170v-170zM0 0v1877h2048v-1877h-2048z" />
    <glyph glyph-name="uniE010" unicode="&#xe010;" 
d="M1024 1792q0 36 25 61t60 24h683q36 -1 61 -25t24 -60v-683q-1 -37 -25 -61t-60 -24h-683q-37 0 -61 25t-24 60v683zM1024 768q0 36 25 61t60 24h683q36 -1 61 -25t24 -60v-683q-1 -37 -25 -61t-60 -24h-683q-37 0 -61 25t-24 60v683zM0 1792q0 36 25 61t60 24h683
q36 -1 61 -25t24 -60v-683q-1 -37 -25 -61t-60 -24h-683q-37 0 -61 25t-24 60v683zM0 768q0 36 25 61t60 24h683q36 -1 61 -25t24 -60v-683q-1 -37 -25 -61t-60 -24h-683q-37 0 -61 25t-24 60v683z" />
    <glyph glyph-name="uniE011" unicode="&#xe011;" 
d="M1365 1792q0 36 25 61t61 24h341q36 -1 61 -25t24 -60v-341q-1 -36 -25 -61t-60 -25h-341q-36 0 -61 25t-25 61v341zM1365 1109q0 36 25 61t61 25h341q36 0 61 -25t24 -61v-341q-1 -36 -25 -61t-60 -24h-341q-36 1 -61 25t-25 60v341zM1365 427q0 37 25 61t61 24h341
q36 0 61 -25t24 -60v-342q-1 -37 -25 -61t-60 -24h-341q-36 0 -61 25t-25 60v342zM683 1792q0 36 24 61q25 25 61 24h341q36 -1 61 -25t25 -60v-341q0 -36 -25 -61t-61 -25h-341q-36 0 -61 25t-24 61v341zM683 1109q0 36 24 61q25 25 61 25h341q36 0 61 -25t25 -61v-341
q0 -36 -25 -61t-61 -24h-341q-36 1 -61 25t-24 60v341zM683 427q1 37 25 61t60 24h341q36 0 61 -25t25 -60v-342q0 -37 -25 -61t-61 -24h-341q-36 0 -61 25t-24 60v342zM0 1792q0 36 25 61t60 24h342q37 -1 61 -25t24 -60v-341q0 -36 -25 -61t-60 -25h-342q-37 0 -61 25
t-24 61v341zM0 1109q0 36 25 61t60 25h342q37 0 61 -25t24 -61v-341q0 -36 -25 -61t-60 -24h-342q-37 1 -61 25t-24 60v341zM0 427q0 37 25 61t60 24h342q37 0 61 -25t24 -60v-342q0 -37 -25 -61t-60 -24h-342q-37 0 -61 25t-24 60v342z" />
    <glyph glyph-name="uniE012" unicode="&#xe012;" 
d="M683 1792q0 36 24 61q25 25 61 24h1195q37 -1 61 -25t24 -60v-341q0 -36 -25 -61t-60 -25h-1195q-36 0 -61 25t-24 61v341zM683 1109q0 36 24 61q25 25 61 25h1195q37 0 61 -25t24 -61v-341q0 -36 -25 -61t-60 -24h-1195q-36 1 -61 25t-24 60v341zM683 427q1 37 25 61
t60 24h1195q37 0 61 -25t24 -60v-342q0 -37 -25 -61t-60 -24h-1195q-36 0 -61 25t-24 60v342zM0 1792q0 36 25 61t60 24h342q37 -1 61 -25t24 -60v-341q0 -36 -25 -61t-60 -25h-342q-37 0 -61 25t-24 61v341zM0 768v341q0 36 25 61t60 25h342q37 0 61 -25t24 -61v-341
q0 -36 -25 -61t-60 -24h-342q-37 1 -61 25t-24 60zM0 427q0 37 25 61t60 24h342q37 0 61 -25t24 -60v-342q0 -37 -25 -61t-60 -24h-342q-37 0 -61 25t-24 60v342z" />
    <glyph glyph-name="uniE013" unicode="&#xe013;" 
d="M49 775l362 362l352 -354l1036 1036l362 -362l-1396 -1399z" />
    <glyph glyph-name="uniE014" unicode="&#xe014;" 
d="M181 118l481 481l-481 481l362 362l481 -481l481 481l362 -362l-481 -481l481 -481l-362 -362l-481 481l-481 -481z" />
    <glyph glyph-name="uniE015" unicode="&#xe015;" 
d="M512 1024v341h171v171h341v-171h171v-341h-171v-171h-341v171h-171zM300 1182q0 -232 166 -397t400 -165t398 164q165 164 164 399q0 235 -164 399t-398 164t-400 -166t-166 -398zM1691 1183q0 -244 -133 -446l512 -512q12 -13 12 -31t-12 -30l-186 -186q-12 -12 -31 -12
t-30 12l-512 512q-201 -133 -446 -133q-341 0 -583 242q-242 241 -242 583t242 584t583 242t583 -242t243 -583z" />
    <glyph glyph-name="uniE016" unicode="&#xe016;" 
d="M512 1026v341h683v-341h-683zM300 1184q0 -232 166 -398t400 -165q234 0 398 166q164 165 164 397t-164 398t-398 166t-400 -166t-166 -398zM865 2010q341 0 583 -242t243 -584q0 -241 -133 -447l512 -510q12 -12 12 -31t-12 -30l-186 -186q-14 -14 -31 -14t-30 14
l-512 512q-201 -133 -446 -134q-341 1 -583 243t-243 583q1 342 243 584t583 242z" />
    <glyph glyph-name="uniE017" unicode="&#xe017;" 
d="M853 1280v683q0 37 25 61t61 24h170q36 0 61 -25t25 -60v-683q0 -36 -25 -61t-61 -24h-170q-36 1 -61 25t-25 60zM39 1024q1 312 179 564t465 359v-283q-177 -94 -283 -265q-105 -172 -105 -375q-1 -302 213 -515t516 -213t515 212q213 214 214 516q0 203 -105 375
t-283 265v283q287 -109 465 -361t179 -562q0 -198 -76 -380t-211 -316q-136 -134 -318 -212q-182 -77 -380 -77t-381 77t-315 212q-135 134 -212 316t-77 380z" />
    <glyph glyph-name="uniE018" unicode="&#xe018;" 
d="M1707 2v2048h341v-2048h-341zM1195 2v1365h341v-1365h-341zM683 2v853h341v-853h-341zM171 2v512h341v-512h-341z" />
    <glyph glyph-name="uniE019" unicode="&#xe019;" 
d="M1391 1025q0 151 -108 259q-107 108 -259 107q-152 1 -260 -107t-107 -259q0 -151 108 -259q107 -108 259 -108t260 108t107 259zM44 1020q0 50 11 130l257 65l4 10q29 93 70 168l-137 228q79 99 179 180l227 -139q103 57 178 74l65 259q89 9 132 9t120 -9l65 -259
q70 -14 178 -74l228 139q104 -80 178 -180l-137 -228q60 -108 74 -178l259 -65q9 -85 9 -129t-9 -122l-259 -64q-12 -67 -74 -178l137 -229q-80 -102 -178 -179l-228 138q-87 -49 -168 -71l-10 -4l-65 -257q-89 -9 -132 -9t-120 9l-65 257l-9 4q-78 20 -169 71l-227 -138
q-102 79 -179 179l137 229q-48 87 -70 167l-4 11l-257 64q-11 71 -11 121z" />
    <glyph glyph-name="uniE020" unicode="&#xe020;" 
d="M1536 171h171v1194h-171v-1194zM1195 171h170v1194h-170v-1194zM853 1877h512v171h-512v-171zM853 171h171v1194h-171v-1194zM512 171h171v1194h-171v-1194zM341 1536h1536v-1365q0 -69 -50 -121t-120 -52h-1195q-70 0 -120 51t-51 122v1365zM171 1835q0 17 12 30
q13 13 30 12h470v171q0 70 50 120t120 51h512q71 -1 121 -51t50 -120v-171h469q17 -1 30 -13t13 -29v-86q0 -43 -43 -42h-1792q-43 0 -42 42v86z" />
    <glyph glyph-name="uniE021" unicode="&#xe021;" 
d="M1879 1026v-1024h-512v682h-512v-682h-512v1024h-341l1119 1099l1099 -1099h-341z" />
    <glyph glyph-name="uniE022" unicode="&#xe022;" 
d="M1195 1365v512l512 -512h-512zM171 2005q0 43 42 43h811v-853h683v-1152q0 -43 -43 -43h-1451q-43 0 -42 43v1962z" />
    <glyph glyph-name="uniE023" unicode="&#xe023;" 
d="M853 853v683h171v-512h341v-171h-512zM1731 1024q1 292 -207 499t-500 207t-498 -206q-208 -208 -208 -500t206 -499q208 -207 500 -207t499 206q207 208 208 500zM1905 515q-137 -233 -371 -371t-510 -138t-509 136t-371 371t-138 511t137 509t371 371t510 138t509 -137
t371 -371t138 -510t-137 -509z" />
    <glyph glyph-name="uniE024" unicode="&#xe024;" 
d="M833 853h382l-46 512h-290zM-171 0l736 2048h357l-36 -512h276l-34 512h355l736 -2048h-919l-69 683h-414l-68 -683h-920z" />
    <glyph glyph-name="uniE025" unicode="&#xe025;" 
d="M1388 341h298v171h-298v-171zM0 0v683h836l-495 512h342v853h512v-853h341l-495 -512h836v-683h-1877z" />
    <glyph glyph-name="uniE026" unicode="&#xe026;" 
d="M853 1024v512h342v-512h256l-427 -512l-427 512h256zM1024 1728q-290 0 -497 -207t-207 -497t208 -497q206 -207 496 -207t497 208q207 206 206 496q0 290 -206 497q-207 207 -497 207zM2 1022q0 207 79 396q79 190 219 330t330 219t394 79q205 0 394 -79
q190 -79 330 -219t219 -330t79 -394q0 -205 -79 -394q-79 -190 -219 -330t-330 -219t-394 -79q-205 0 -394 79t-328 218q-140 139 -220 327t-80 396z" />
    <glyph glyph-name="uniE027" unicode="&#xe027;" 
d="M1195 1024v-512h-342v512h-256l427 512l427 -512h-256zM1731 1024q1 292 -207 499t-500 207t-498 -206q-208 -208 -208 -500t206 -499q208 -207 500 -207t499 206q207 208 208 500zM1905 515q-137 -233 -371 -371t-510 -138t-509 136t-371 371t-138 511t137 509t371 371
t510 138t509 -137t371 -371t138 -510t-137 -509z" />
    <glyph glyph-name="uniE028" unicode="&#xe028;" 
d="M341 853h342l85 -341h512l85 341h342l-166 854h-1034zM2005 0h-1962q-43 0 -43 43v810l341 1195h1366l339 -1195l2 -810q0 -43 -43 -43z" />
    <glyph glyph-name="uniE029" unicode="&#xe029;" 
d="M853 678v684l507 -341zM317 1023q-1 -293 207 -499t500 -207q292 0 499 207q207 208 207 500t-206 499q-208 207 -500 207t-500 -206q-208 -208 -207 -501zM1905 515q-137 -233 -371 -371t-510 -138t-509 136t-371 371t-138 511t137 509t371 371t510 138t509 -137
t371 -371t138 -510t-137 -509z" />
    <glyph glyph-name="uniE030" unicode="&#xe030;" 
d="M1024 2009q336 0 606 -208l247 247v-683h-682l249 250q-188 138 -420 138q-302 1 -515 -213t-213 -516t212 -515q214 -213 516 -213t515 212q213 214 214 516h256q0 -198 -76 -380t-211 -316q-136 -134 -318 -212q-182 -77 -380 -77t-381 77t-315 212q-135 134 -212 316
t-77 384t78 381q78 180 212 314q133 134 315 210t380 76z" />
    <glyph glyph-name="uniE031" unicode="&#xe031;" 
d="M171 683h682l-251 -251q193 -137 422 -137q302 -1 515 213t214 516h256q0 -198 -76 -380t-211 -316q-136 -134 -318 -212q-182 -77 -380 -77q-336 0 -606 208l-247 -247v683zM39 1024q0 198 77 381t212 317q134 134 316 211q182 76 380 76q336 0 606 -208l247 247v-683
h-682l251 251q-193 137 -422 137q-302 1 -515 -213t-214 -516h-256z" />
    <glyph glyph-name="uniE032" unicode="&#xe032;" 
d="M853 1365v171h854v-171h-854zM853 1024v171h854v-171h-854zM853 683v170h854v-170h-854zM853 341v171h854v-171h-854zM512 1365v171h171v-171h-171zM512 1024v171h171v-171h-171zM512 683v170h171v-170h-171zM512 341v171h171v-171h-171zM341 171h1536v1536h-1536v-1536z
M171 0v2048h1877v-2048h-1877z" />
    <glyph glyph-name="uniE033" unicode="&#xe033;" 
d="M683 1365h512v256q0 36 -25 61t-61 25h-341q-36 0 -61 -25t-24 -61v-256zM0 1195q0 70 50 120t121 50h170v342q0 141 101 241t241 100h512q141 0 241 -101t100 -240v-342h171q70 0 120 -50t50 -120v-1024q0 -71 -50 -121t-120 -50h-1536q-70 0 -121 50q-50 50 -50 121
v1024z" />
    <glyph glyph-name="uniE034" unicode="&#xe034;" 
d="M512 683v853q55 223 225 244q67 10 127 -2t150 -37q333 -99 462 -109q128 -10 232 50q104 62 169 195v-853q-137 -268 -331 -276q-46 3 -53 -1t-53 5t-54 8t-55 11q-48 12 -57 15q-8 4 -58 16t-102 26t-163 27q-112 11 -226 -31t-213 -141zM171 0v1877h170v-1877h-170z
" />
    <glyph glyph-name="uniE035" unicode="&#xe035;" 
d="M1365 819q1 14 11 24t23 10h274q13 0 23 -10t11 -24v-785q-1 -14 -11 -24t-23 -10h-274q-13 0 -23 10t-11 24v785zM341 819q1 14 11 24t23 10h274q13 0 23 -10t11 -24v-785q-1 -14 -11 -24t-23 -10h-274q-13 0 -23 10t-11 24v785zM0 469v512q0 195 84 385
q172 388 554 556q383 168 771 1q190 -83 332 -225q143 -142 225 -332t82 -385v-512q0 -43 -43 -42h-85q-43 0 -43 42v512q0 217 -119 395t-314 276q-196 98 -420 97q-224 0 -420 -98t-315 -277t-118 -393v-512q0 -43 -43 -42h-85q-43 -1 -43 42z" />
    <glyph glyph-name="uniE036" unicode="&#xe036;" 
d="M1174 783l241 241l-241 241l121 121l241 -241l241 241l121 -121l-241 -241l241 -241l-121 -121l-241 241l-241 -241zM0 683v682h512l512 342v-1366l-512 342h-512z" />
    <glyph glyph-name="uniE037" unicode="&#xe037;" 
d="M1312 1553q190 -229 190 -523t-181 -521l-114 92q147 188 147 430t-159 432zM0 683v682h512l512 342v-1366l-512 342h-512z" />
    <glyph glyph-name="uniE038" unicode="&#xe038;" 
d="M1739 1033q0 331 -222 590l142 109l10 -13q246 -305 246 -695t-242 -693l-11 -14l-138 113l12 14q203 258 203 589zM1505 1030q0 -294 -181 -521l-114 93q147 188 147 430t-159 432l118 91q189 -231 189 -525zM0 684v683h512l512 341v-1365l-512 341h-512z" />
    <glyph glyph-name="uniE039" unicode="&#xe039;" 
d="M1877 341v171h171v-171h-171zM1536 1536v171h171v-171h-171zM1536 0v171h512v-171h-512zM1365 1365h512v512h-512v-512zM1024 1707v341h1024v-853h-341v-171h341v-341h-512v512h-341v512h-171zM1024 0v171h171v-171h-171zM341 1536v171h171v-171h-171zM341 341v171h171
v-171h-171zM171 1365h512v512h-512v-512zM171 171h512v512h-512v-512zM0 1024v1024h853v-512h171v-171h-171v-170h-682v-171h-171zM0 0v853h341v171h171v-171h341v-853h-853zM1536 171h-341v170h-171v171h171v341h-342v171h512v-512h342v-171h-171v-170z" />
    <glyph glyph-name="uniE040" unicode="&#xe040;" 
d="M1707 341v1707h341v-1707h-341zM1536 0v155h341v-155h-341zM1365 341v1707h171v-1707h-171zM1195 0v155h170v-155h-170zM853 341v1707h342v-1707h-342zM853 0v155h171v-155h-171zM341 341v1707h171v-1707h-171zM171 0v171h512v-171h-512zM0 341v1707h171v-1707h-171z" />
    <glyph glyph-name="uniE041" unicode="&#xe041;" 
d="M253 1626q0 -72 50 -122t121 -50t121 50t51 122q0 72 -50 122t-122 50q-71 0 -121 -49q-50 -51 -50 -123zM44 2048h809l1195 -1195l-853 -853l-1195 1195l2 810q0 17 13 30t29 13z" />
    <glyph glyph-name="uniE042" unicode="&#xe042;" 
d="M1196 2048h171l1195 -1195l-854 -853l-85 85l768 768zM253 1627q0 -73 50 -123t122 -50t122 50t50 122t-50 122q-51 50 -123 50t-120 -50q-51 -48 -51 -121zM46 2048h809l1195 -1195l-854 -853l-1194 1195l1 810q0 43 43 43z" />
    <glyph glyph-name="uniE043" unicode="&#xe043;" 
d="M171 0v1749l298 299h1579v-1707l-171 -170v1706h-1280l-170 -170h1280v-1707h-1536z" />
    <glyph glyph-name="uniE044" unicode="&#xe044;" 
d="M341 1964q0 34 25 60t61 26h1365q36 0 61 -26t24 -60v-1962l-768 756l-768 -758v1964z" />
    <glyph glyph-name="uniE045" unicode="&#xe045;" 
d="M597 341h854q17 0 33 -12t20 -29l64 -259q3 -17 -6 -29t-26 -12h-1024q-17 0 -26 12t-6 29l64 259q4 17 20 29t33 12zM640 2048h768q39 0 48 -43l160 -590l-106 -212h-1010l-68 212l160 590q9 43 48 43zM0 171v1194h341l171 -341h1024l171 341h341v-1194h-341v341h-1366
v-341h-341z" />
    <glyph glyph-name="uniE046" unicode="&#xe046;" 
d="M1536 1195h171v170h-171v-170zM1024 1034q75 0 128 -53t53 -128t-53 -128t-128 -53t-128 53t-53 128t53 128t128 53zM1024 437q171 0 294 123q122 124 122 294t-122 293q-123 123 -294 123t-294 -123t-123 -293t123 -294q123 -123 294 -123zM0 341v1024q0 71 50 121
t121 50h256l20 34q44 82 155 194t251 113h342q67 0 139 -34t118 -80q47 -46 91 -104q66 -87 78 -123h256q71 0 121 -50t50 -121v-1024q0 -70 -50 -120t-121 -50h-1706q-70 0 -121 50q-50 50 -50 120z" />
    <glyph glyph-name="uniE047" unicode="&#xe047;" 
d="M710 889h580l-198 541l-78 239zM90 0v113l26 12q74 34 120 77t87 127l681 1717h158l657 -1703l11 -22q12 -29 35 -63q92 -143 183 -145v-113h-712v113q87 0 127 72q39 73 10 153l-140 379h-667l-157 -400q-32 -73 -2 -121q56 -84 206 -83v-113h-623z" />
    <glyph glyph-name="uniE048" unicode="&#xe048;" 
d="M683 1195h237q128 0 221 104q93 103 93 241t-145 220t-406 81v-646zM683 341h274q157 1 264 85t107 232t-108 256q-108 110 -266 110h-271v-683zM171 0v152q73 12 122 57t48 110v1412q1 79 -7 103t-20 36q-31 30 -143 57v121l804 -2q213 0 367 -152t155 -387
q0 -189 -61 -290t-112 -138l-20 -12q30 -12 48 -21t76 -53q58 -43 102 -99q45 -56 79 -158q35 -102 35 -227t-98 -250t-246 -192q-140 -67 -276 -67h-853z" />
    <glyph glyph-name="uniE049" unicode="&#xe049;" 
d="M341 0v97q133 12 231 69q97 57 111 138l295 1449q15 92 -15 123t-175 71q-2 2 -8 2t-9 2v97h726l3 -97q-116 -29 -178 -100t-86 -124l-9 -20l-218 -1408q-17 -92 25 -142q43 -49 161 -60v-97h-854z" />
    <glyph glyph-name="uniE050" unicode="&#xe050;" 
d="M512 1536v512h1707v-512h-86q0 90 -40 130t-216 41h-341v-1451l171 -85v-171h-683v171l171 85v1451h-342q-172 0 -210 -34q-47 -47 -47 -137h-84zM0 341v1366h-128l213 285l214 -285h-128v-1366h128l-214 -285l-213 285h128z" />
    <glyph glyph-name="uniE051" unicode="&#xe051;" 
d="M171 1538v512h1706v-512h-85q0 87 -40 130t-216 40h-341v-1109l170 -85v-171h-682v171l170 85v1109h-341q-176 0 -216 -39t-40 -131h-85zM341 172h1366v128l285 -213l-285 -213v128h-1366v-128l-285 213l285 213v-128z" />
    <glyph glyph-name="uniE052" unicode="&#xe052;" 
d="M0 1621v171q0 36 25 61t60 24h1024q36 -1 61 -25t25 -60v-171q0 -33 -25 -59t-61 -26h-1024q-37 0 -61 26t-24 59zM0 1109v171q0 36 25 61t60 24h1707q36 -1 61 -25t24 -60v-171q-1 -33 -25 -59t-60 -26h-1707q-37 0 -61 26t-24 59zM0 597v171q0 36 25 61t60 24h1366
q37 -1 61 -25t24 -60v-171q0 -33 -25 -59t-60 -26h-1366q-37 0 -61 26t-24 59zM0 85v171q0 36 25 61t60 24h1878q37 -1 61 -25t24 -60v-171q0 -33 -25 -59t-60 -26h-1878q-37 0 -61 26t-24 59z" />
    <glyph glyph-name="uniE053" unicode="&#xe053;" 
d="M341 1621v171q0 36 25 61t61 24h1194q36 -1 61 -25t25 -60v-171q0 -33 -25 -59t-61 -26h-1194q-36 0 -61 26t-25 59zM341 597v171q0 36 25 61t61 24h1194q36 -1 61 -25t25 -60v-171q0 -33 -25 -59t-61 -26h-1194q-36 0 -61 26t-25 59zM0 1109v171q0 36 25 61t60 24h1878
q37 -1 61 -25t24 -60v-171q0 -33 -25 -59t-60 -26h-1878q-37 0 -61 26t-24 59zM0 85v171q0 36 25 61t60 24h1878q37 -1 61 -25t24 -60v-171q0 -33 -25 -59t-60 -26h-1878q-37 0 -61 26t-24 59z" />
    <glyph glyph-name="uniE054" unicode="&#xe054;" 
d="M853 1792q0 36 25 61t61 24h1024q37 -1 61 -25t24 -60v-171q0 -33 -25 -59t-60 -26h-1024q-36 0 -61 26t-25 59v171zM512 768q0 36 25 61t60 24h1366q37 -1 61 -25t24 -60v-171q0 -33 -25 -59t-60 -26h-1366q-37 0 -61 26t-24 59v171zM171 1280q0 36 24 61q25 25 61 24
h1707q37 -1 61 -25t24 -60v-171q0 -33 -25 -59t-60 -26h-1707q-36 0 -61 26t-24 59v171zM0 256q0 36 25 61t60 24h1878q37 -1 61 -25t24 -60v-171q0 -33 -25 -59t-60 -26h-1878q-37 0 -61 26t-24 59v171z" />
    <glyph glyph-name="uniE055" unicode="&#xe055;" 
d="M0 1792q0 36 25 61t60 24h1878q37 -1 61 -25t24 -60v-171q0 -33 -25 -59t-60 -26h-1878q-37 0 -61 26t-24 59v171zM0 1280q0 36 25 61t60 24h1878q37 -1 61 -25t24 -60v-171q0 -33 -25 -59t-60 -26h-1878q-37 0 -61 26t-24 59v171zM0 768q0 36 25 61t60 24h1878
q37 -1 61 -25t24 -60v-171q0 -33 -25 -59t-60 -26h-1878q-37 0 -61 26t-24 59v171zM0 256q0 36 25 61t60 24h1878q37 -1 61 -25t24 -60v-171q0 -33 -25 -59t-60 -26h-1878q-37 0 -61 26t-24 59v171z" />
    <glyph glyph-name="uniE056" unicode="&#xe056;" 
d="M512 1792q0 36 25 61t60 24h1366q37 -1 61 -25t24 -60v-171q0 -33 -25 -59t-60 -26h-1366q-37 0 -61 26t-24 59v171zM512 1280q0 36 25 61t60 24h1366q37 -1 61 -25t24 -60v-171q0 -33 -25 -59t-60 -26h-1366q-37 0 -61 26t-24 59v171zM512 768q0 36 25 61t60 24h1366
q37 -1 61 -25t24 -60v-171q0 -33 -25 -59t-60 -26h-1366q-37 0 -61 26t-24 59v171zM512 256q0 36 25 61t60 24h1366q37 -1 61 -25t24 -60v-171q0 -33 -25 -59t-60 -26h-1366q-37 0 -61 26t-24 59v171zM0 1792q0 36 25 61t60 24h171q36 -1 61 -25t24 -60v-171q-1 -33 -25 -59
t-60 -26h-171q-37 0 -61 26t-24 59v171zM0 1280q0 36 25 61t60 24h171q36 -1 61 -25t24 -60v-171q-1 -33 -25 -59t-60 -26h-171q-37 0 -61 26t-24 59v171zM0 768q0 36 25 61t60 24h171q36 -1 61 -25t24 -60v-171q-1 -33 -25 -59t-60 -26h-171q-37 0 -61 26t-24 59v171z
M0 256q0 36 25 61t60 24h171q36 -1 61 -25t24 -60v-171q-1 -33 -25 -59t-60 -26h-171q-37 0 -61 26t-24 59v171z" />
    <glyph glyph-name="uniE057" unicode="&#xe057;" 
d="M853 1621v171q0 36 25 61t61 24h170q34 -1 60 -25t26 -60v-171q0 -33 -26 -59t-60 -26h-170q-36 0 -61 26t-25 59zM853 1109v171q0 36 25 61t61 24h853q34 -1 60 -25t25 -60v-171q1 -33 -25 -59t-60 -26h-853q-36 0 -61 26t-25 59zM853 597v171q0 36 25 61t61 24h512
q33 -1 59 -25t26 -60v-171q0 -33 -26 -59t-59 -26h-512q-36 0 -61 26t-25 59zM853 85v171q0 36 25 61t61 24h1024q33 -1 59 -25t26 -60v-171q0 -33 -26 -59t-59 -26h-1024q-36 0 -61 26t-25 59zM512 0v1877h171v-1877h-171zM-172 853v171h343v128l283 -213l-283 -214v128
h-343z" />
    <glyph glyph-name="uniE058" unicode="&#xe058;" 
d="M1879 1024h341v-171h-341v-128l-285 214l285 213v-128zM1367 0v1877h171v-1877h-171zM2 1621v171q0 36 24 61q25 25 61 24h171q34 -1 60 -25t25 -60v-171q0 -33 -26 -59t-59 -26h-171q-37 0 -61 26t-24 59zM2 1109v171q0 36 24 61q25 25 61 24h853q34 -1 60 -25t26 -60
v-171q0 -33 -26 -59t-60 -26h-853q-37 0 -61 26t-24 59zM2 597v171q0 36 24 61q25 25 61 24h512q34 -1 60 -25t25 -60v-171q0 -33 -26 -59t-59 -26h-512q-37 0 -61 26t-24 59zM2 85v171q0 36 24 61q25 25 61 24h1024q34 -1 60 -25t25 -60v-171q0 -33 -26 -59t-59 -26h-1024
q-37 0 -61 26t-24 59z" />
    <glyph glyph-name="uniE059" unicode="&#xe059;" 
d="M0 1579q0 53 38 91t90 37h1280q52 0 90 -38t38 -90v-555l512 512v-1024l-512 512v-555q0 -53 -38 -91t-90 -37h-1280q-52 0 -90 38t-38 90v1110z" />
    <glyph glyph-name="uniE060" unicode="&#xe060;" 
d="M355 1280q0 96 67 162q66 66 162 67q96 0 162 -67q66 -66 66 -162t-66 -162t-162 -67q-95 0 -162 67q-67 66 -67 162zM1877 1707h-1706v-1258l421 310l509 -223l-126 266l500 543l402 -492v854zM0 1802q0 31 22 53t53 22h1898q31 0 53 -22t22 -53v-1727q0 -31 -21 -53
t-54 -22h-1898q-31 0 -53 22t-22 53v1727z" />
    <glyph glyph-name="uniE062" unicode="&#xe062;" 
d="M1022 1756q-182 0 -310 -128t-128 -311q0 -182 129 -311t311 -129t310 129q129 129 129 312q0 182 -129 310t-312 128zM253 1272q0 210 103 394q102 184 280 294t387 110t388 -106q178 -107 281 -290t103 -394t-124 -463q-114 -181 -272 -389t-269 -338l-97 -112
q-97 81 -316 342q-219 262 -357 504q-107 237 -107 448z" />
    <glyph glyph-name="uniE063" unicode="&#xe063;" 
d="M295 1024q0 -302 214 -515t515 -214v1458q-301 -1 -515 -213q-214 -214 -214 -516zM2 1022q0 207 79 396q79 190 219 330t330 219t394 79q205 0 394 -79q190 -79 330 -219t219 -330t79 -394q0 -205 -79 -394q-79 -190 -219 -330t-330 -219t-394 -79q-205 0 -394 79
t-328 218q-140 139 -220 327t-80 396z" />
    <glyph glyph-name="uniE064" unicode="&#xe064;" 
d="M640 1289q-155 -184 -203 -312q-48 -129 -22 -271t105 -232t229 -136l28 167q-46 36 -88 110q-42 73 -58 133q-46 225 -6 453zM200 693q0 302 210 613q102 150 191 271q256 352 344 633q88 -293 371 -667q176 -242 259 -398q116 -215 116 -447q0 -148 -65 -279t-175 -219
q-225 -179 -506 -193q-425 22 -636 328q-109 155 -109 358z" />
    <glyph glyph-name="uniE065" unicode="&#xe065;" 
d="M1698 1732l193 193l157 -48l36 -145l-193 -193zM744 582l92 290l691 691l195 -193l-703 -703zM0 1195q0 283 201 483t482 199q620 -10 677 -24l-317 -317h-531q-70 0 -120 -50t-51 -121v-853q1 -70 51 -120t120 -51h853q71 1 121 51t50 120v213l341 342v-384
q-1 -283 -201 -483t-481 -200h-512q-283 0 -483 201t-200 482v512z" />
    <glyph glyph-name="uniE066" unicode="&#xe066;" 
d="M1389 1463v368l613 -542l-614 -553v356l-50 2q-119 3 -300 -29q-92 -17 -180 -63t-136 -108q38 222 162 346t265 174q142 50 240 49zM0 1195q0 283 201 483t482 199h445l4 -136q-225 -53 -373 -205h-247q-70 0 -120 -50t-51 -121v-853q1 -70 51 -120t120 -51h853
q71 1 121 51t50 120l341 261v-90q-1 -283 -201 -483t-481 -200h-512q-283 0 -483 201t-200 482v512z" />
    <glyph glyph-name="uniE067" unicode="&#xe067;" 
d="M584 1079l233 232l250 -251l734 735l233 -233l-967 -968zM0 1195q0 283 201 483t482 199h512q102 0 216 -39l-303 -302h-596q-70 0 -120 -50t-51 -121v-853q1 -70 51 -120t120 -51h853q71 1 121 51t50 120v118l341 341v-288q-1 -283 -201 -483t-481 -200h-512
q-283 0 -483 201t-200 482v512z" />
    <glyph glyph-name="uniE068" unicode="&#xe068;" 
d="M512 1196h341v342h-341l512 512l503 -512h-332v-342h341v338l512 -505l-512 -512v338h-341v-341h332l-503 -512l-512 512h341v341h-341v-338l-512 512l512 505v-338z" />
    <glyph glyph-name="uniE069" unicode="&#xe069;" 
d="M341 1792q0 36 25 61t61 24h170q36 -1 61 -25t25 -60v-746l853 831v-1877l-853 833v-748q0 -37 -25 -61t-61 -24h-170q-36 0 -61 25t-25 60v1707z" />
    <glyph glyph-name="uniE070" unicode="&#xe070;" 
d="M0 1792q0 36 25 61t60 24h171q36 -1 61 -25t24 -60v-746l854 831v-831l853 831v-1877l-853 833v-833l-854 833v-748q-1 -37 -25 -61t-60 -24h-171q-37 0 -61 25t-24 60v1707z" />
    <glyph glyph-name="uniE071" unicode="&#xe071;" 
d="M232 939l963 938v-831l853 831v-1877l-853 833v-833z" />
    <glyph glyph-name="uniE072" unicode="&#xe072;" 
d="M341 0v1877l1536 -938z" />
    <glyph glyph-name="uniE073" unicode="&#xe073;" 
d="M1024 256v1365q0 36 25 61t60 25h342q37 0 61 -25t24 -61v-1365q0 -36 -25 -61t-60 -24h-342q-37 1 -61 25t-24 60zM341 256v1365q0 36 25 61t61 25h341q36 0 61 -25t24 -61v-1365q-1 -36 -25 -61t-60 -24h-341q-36 1 -61 25t-25 60z" />
    <glyph glyph-name="uniE074" unicode="&#xe074;" 
d="M341 256v1365q0 36 25 61t61 25h1365q36 0 61 -25t24 -61v-1365q-1 -34 -25 -60t-60 -25h-1365q-36 -1 -61 25t-25 60z" />
    <glyph glyph-name="uniE075" unicode="&#xe075;" 
d="M0 0v1877l853 -831v831l963 -938l-963 -939v833z" />
    <glyph glyph-name="uniE076" unicode="&#xe076;" 
d="M1707 1792q0 36 24 61q25 25 61 24h171q37 -1 61 -25t24 -60v-1707q0 -37 -25 -61t-60 -24h-171q-36 0 -61 25t-24 60v748l-854 -833v833l-853 -833v1877l853 -831v831l854 -831v746z" />
    <glyph glyph-name="uniE077" unicode="&#xe077;" 
d="M1365 1792q0 36 25 61t61 24h170q36 -1 61 -25t25 -60v-1707q0 -37 -25 -61t-61 -24h-170q-36 0 -61 25t-25 60v748l-853 -833v1877l853 -831v746z" />
    <glyph glyph-name="uniE078" unicode="&#xe078;" 
d="M171 853l938 963l939 -963h-1877zM171 597q0 36 24 61q25 25 61 25h1707q37 0 61 -25t24 -61v-170q0 -36 -25 -61t-60 -25h-1707q-36 0 -61 25t-24 61v170z" />
    <glyph glyph-name="uniE079" unicode="&#xe079;" 
d="M316 1022l1010 1014l410 -410l-603 -602l603 -602l-410 -410z" />
    <glyph glyph-name="uniE080" unicode="&#xe080;" 
d="M464 331l603 603l-603 602l412 410l1012 -1012l-2 -2v-2l-1010 -1009z" />
    <glyph glyph-name="uniE081" unicode="&#xe081;" 
d="M512 853h341v-341h342v341h341v342h-341v341h-342v-341h-341v-342zM1024 5q-276 0 -510 136q-234 135 -372 371t-137 512q0 276 136 510q135 234 371 372t512 137q276 0 510 -136t372 -372t137 -511q0 -276 -136 -510t-371 -372q-237 -137 -512 -137z" />
    <glyph glyph-name="uniE082" unicode="&#xe082;" 
d="M512 853h1024v342h-1024v-342zM1024 5q-276 0 -510 136q-234 135 -372 371t-137 512q0 276 136 510q135 234 371 372t512 137q276 0 510 -136t372 -372t137 -511q0 -276 -136 -510t-371 -372q-237 -137 -512 -137z" />
    <glyph glyph-name="uniE083" unicode="&#xe083;" 
d="M420 783l363 -363l241 242l241 -242l363 363l-242 241l242 241l-363 361l-241 -240l-241 242l-361 -363l240 -241zM1024 5q-276 0 -510 136q-234 135 -372 371t-137 512q0 276 136 510q135 234 371 372t512 137q276 0 510 -136t372 -372t137 -511q0 -276 -136 -510
t-371 -372q-237 -137 -512 -137z" />
    <glyph glyph-name="uniE084" unicode="&#xe084;" 
d="M461 940l471 -472l701 701l-298 297l-403 -403l-174 174zM1024 5q-276 0 -510 136q-234 135 -372 371t-137 512q0 276 136 510q135 234 371 372t512 137q276 0 510 -136t372 -372t137 -511q0 -276 -136 -510t-371 -372q-237 -137 -512 -137z" />
    <glyph glyph-name="uniE085" unicode="&#xe085;" 
d="M853 512h342v171h-342v-171zM1026 1270q70 0 70 -67q0 -33 -7 -43t-46 -37q-9 -3 -21 -5q-55 -18 -113 -78t-56 -187h342q11 7 27 17t54 45q38 36 64 73q77 111 77 278q0 328 -390 337q-169 1 -287 -91t-119 -317h244l40 -4q15 0 15 21t14 44q12 12 51 14h41zM1024 5
q-276 0 -510 136q-234 135 -372 371t-137 512q0 276 136 510q135 234 371 372t512 137q276 0 510 -136t372 -372t137 -511q0 -276 -136 -510t-371 -372q-237 -137 -512 -137z" />
    <glyph glyph-name="uniE086" unicode="&#xe086;" 
d="M853 1365h342v171h-342v-171zM683 512h682v171h-170v512h-512v-171h170v-341h-170v-171zM1024 5q-276 0 -510 136q-234 135 -372 371t-137 512q0 276 136 510q135 234 371 372t512 137q276 0 510 -136t372 -372t137 -511q0 -276 -136 -510t-371 -372q-237 -137 -512 -137
z" />
    <glyph glyph-name="uniE087" unicode="&#xe087;" 
d="M0 853v342h333q55 225 173 347t347 165v341h342v-341q222 -84 385 -282q90 -114 122 -230h346v-342h-346q-40 -167 -192 -311t-315 -206v-336h-342v336q-230 44 -350 169q-119 125 -172 348h-331zM1195 853v342h-342v-342h-358q41 -125 136 -217t222 -134v351h342z
M1195 853v-351q253 82 343 351h-343zM1195 1195h341q-89 266 -341 348v-348zM853 1195v346q-128 -39 -222 -131t-134 -215h356z" />
    <glyph glyph-name="uniE088" unicode="&#xe088;" 
d="M608 794l230 230l-230 230l186 186l230 -230l230 230l186 -186l-230 -230l230 -230l-186 -186l-230 230l-230 -230zM1731 1024q1 292 -207 499t-500 207t-498 -206q-208 -208 -208 -500t206 -499q208 -207 500 -207t499 206q207 208 208 500zM1905 515
q-137 -233 -371 -371t-510 -138t-509 136t-371 371t-138 511t137 509t371 371t510 138t509 -137t371 -371t138 -510t-137 -509z" />
    <glyph glyph-name="uniE089" unicode="&#xe089;" 
d="M550 916l240 241l149 -148l348 350l242 -243l-590 -589zM1731 1024q1 292 -207 499t-500 207t-498 -206q-208 -208 -208 -500t206 -499q208 -207 500 -207t499 206q207 208 208 500zM1905 515q-137 -233 -371 -371t-510 -138t-509 136t-371 371t-138 511t137 509t371 371
t510 138t509 -137t371 -371t138 -510t-137 -509z" />
    <glyph glyph-name="uniE090" unicode="&#xe090;" 
d="M1024 317q292 -1 499 207t208 500q0 189 -101 357l-963 -963q167 -101 357 -101zM317 1024q0 -195 106 -367l970 968q-172 106 -369 106q-292 1 -500 -207t-207 -500zM1905 515q-137 -233 -371 -371t-510 -138t-509 136t-371 371t-138 511t137 509t371 371t510 138
t509 -137t371 -371t138 -510t-137 -509z" />
    <glyph glyph-name="uniE091" unicode="&#xe091;" 
d="M1024 1195h1024v-512h-1024v-514l-1024 765l1024 773v-512z" />
    <glyph glyph-name="uniE092" unicode="&#xe092;" 
d="M0 683v512h1024v512l1024 -773l-1024 -765v514h-1024z" />
    <glyph glyph-name="uniE093" unicode="&#xe093;" 
d="M1365 1024v-1024h-512v1024h-505l768 1024l758 -1024h-509z" />
    <glyph glyph-name="uniE094" unicode="&#xe094;" 
d="M683 1024v1024h512v-1024h508l-766 -1024l-760 1024h506z" />
    <glyph glyph-name="uniE095" unicode="&#xe095;" 
d="M0 341q20 451 247 738q244 307 777 336v462l1024 -773l-1024 -764v513q-323 -7 -602 -123q-142 -58 -252 -158t-170 -231z" />
    <glyph glyph-name="uniE096" unicode="&#xe096;" 
d="M2048 2048v-683l-220 220l-502 -501l-242 242l501 502l-220 220h683zM0 0v683l220 -220l502 501l242 -242l-501 -502l220 -220h-683z" />
    <glyph glyph-name="uniE097" unicode="&#xe097;" 
d="M1024 1024v683l220 -220l504 503l242 -241l-503 -503l220 -222h-683v-683l-220 222l-504 -503l-242 240l503 504l-220 220h683z" />
    <glyph glyph-name="uniE101" unicode="&#xe101;" 
d="M853 512h342v171h-342v-171zM978 853h92q34 0 64 25t37 59l99 515q6 34 -14 59t-55 25h-353q-36 0 -56 -25t-14 -59l99 -515q7 -34 37 -59t64 -25zM39 1022q0 200 77 383t212 317q134 134 316 211q182 76 380 76t381 -76t317 -211q134 -136 211 -318q76 -182 76 -380
t-76 -380t-211 -316q-136 -134 -318 -212q-182 -77 -380 -77t-381 77q-183 78 -315 210t-210 314q-79 182 -79 382z" />
    <glyph glyph-name="uniE102" unicode="&#xe102;" 
d="M1707 1536q2 0 0 5t-11 40t-28 86q-18 51 -38 106t-25 65q-3 10 -7 20t-6 14l-344 -336h459zM1195 0v683h682v-683h-682zM341 1536h480l-364 326l-30 -80q-62 -149 -75 -197q-13 -49 -11 -49zM171 0v683h682v-683h-682zM0 1365v171h189v10q0 31 7 57l60 302q17 65 69 104
t110 39t115 -31l406 -245q34 -19 68 -62q29 36 68 60l408 246q49 29 110 29t113 -41t71 -108l58 -293q15 -51 7 -67h189v-171h-171v-341h-682v512h-342v-512h-682v341h-171z" />
    <glyph glyph-name="uniE103" unicode="&#xe103;" 
d="M456 713q-79 -187 -49 -201t148 131q96 113 626 400q237 129 394 269t299 427q38 83 40 101t-9 34q-14 9 -29 8q-38 0 -98 -86t-190 -183q-129 -97 -247 -161l-104 -54q-629 -337 -781 -685zM0 -38v245l369 329q-52 315 -16 493q17 84 65 196q96 224 297 388
q91 73 177 117q143 73 483 148t671 170q0 -633 -132 -1008t-338 -528q-206 -152 -428 -170t-410 20t-226 39l-169 -94z" />
    <glyph glyph-name="uniE104" unicode="&#xe104;" 
d="M189 695q0 50 14 146q29 196 208 355q-44 -99 9 -266q20 -70 70 -107t110 -23q62 14 92 60t32 90q1 44 2 66t-6 62q-8 40 -10 60t-14 79q-12 60 -13 72q-24 133 12 275t98 235q62 92 148 180q125 128 191 163q-87 -254 -82 -439q7 -357 279 -471q105 -47 130 43
q25 91 -45 305q-25 76 -47 120q283 -188 422 -478t75 -580q-24 -109 -80 -206t-113 -154q-123 -126 -452 -243q-129 -34 -157 -8q-42 31 -2 114q10 29 80 170q128 259 24 482q-67 142 -213 292q36 -63 22 -269t-67 -315q-22 -46 -59 -102q-87 -133 -180 -190
q-121 -79 -215 -13q-111 72 -174 176t-76 187q-13 82 -13 132z" />
    <glyph glyph-name="uniE105" unicode="&#xe105;" 
d="M643 1120q84 -212 263 -326l179 179q-57 39 -123 118t-102 148l-34 61zM1536 1195q0 -212 -150 -362t-362 -150t-362 150t-150 362q0 145 79 269q-173 -146 -386 -440q2 -3 12 -17t25 -36t61 -88q86 -123 205 -247t303 -189q102 -38 213 -37q296 0 523 227q75 77 113 127
t99 138t86 122q-3 3 -48 65q-97 123 -173 214t-172 170q84 -125 84 -278zM1024 1835q238 -1 456 -131q216 -130 384 -306q128 -138 182 -217t62 -89l44 -68l-44 -68q-8 -10 -62 -88t-202 -238q-148 -159 -346 -275q-234 -142 -474 -142t-474 142q-200 119 -364 295
q-128 136 -184 216t-62 90l-44 68l44 68q6 10 62 90t201 235t364 287t457 131z" />
    <glyph glyph-name="uniE106" unicode="&#xe106;" 
d="M1396 522q78 55 156 136q78 82 128 148t108 138q56 72 57 80q-171 224 -239 299l67 249q102 -84 213 -203q133 -142 166 -194t56 -83l44 -68l-44 -68q-105 -171 -314 -376q-96 -90 -220 -176t-243 -129zM643 1120q84 -212 263 -326l80 80l40 148q-94 87 -176 234l-24 44z
M512 1195q0 145 79 269q-173 -146 -386 -440q358 -481 671 -573l63 240q-184 31 -306 173q-121 143 -121 331zM1024 1835q101 0 207 -29l63 242h252l-536 -2048h-252l63 244q-131 34 -273 118t-238 171t-187 189t-115 136t-68 98l-44 68l44 68q6 10 62 90t201 235t364 287
t457 131z" />
    <glyph glyph-name="uniE107" unicode="&#xe107;" 
d="M855 1195h341v-171l-170 -512l-171 512v171zM855 341v171h341v-171h589l-759 1234l-760 -1234h589zM2130 0h-2209q-61 0 -85 58t12 113l1096 1819q34 54 82 50t82 -62l1095 -1802q36 -56 12 -116t-85 -60z" />
    <glyph glyph-name="uniE108" unicode="&#xe108;" 
d="M171 517q0 34 18 76q19 42 45 66l619 554v579q0 106 75 181t181 75t181 -75t75 -181v-579l620 -554q27 -24 45 -66t18 -76v-70q0 -34 -20 -45t-50 9l-613 425v-449q171 -155 171 -192v-110q0 -35 -22 -49t-55 2l-160 133h-379l-161 -133q-32 -14 -54 0t-22 47v110
q0 38 170 192v449l-612 -425q-29 -20 -50 -9q-20 11 -20 45v70z" />
    <glyph glyph-name="uniE109" unicode="&#xe109;" 
d="M1536 853h171v171h-171v-171zM1536 512h171v171h-171v-171zM1536 171h171v170h-171v-170zM1195 853h170v171h-170v-171zM1195 512h170v171h-170v-171zM1195 171h170v170h-170v-170zM853 853h171v171h-171v-171zM853 512h171v171h-171v-171zM853 171h171v170h-171v-170z
M512 853h171v171h-171v-171zM512 512h171v171h-171v-171zM512 171h171v170h-171v-170zM171 853h170v171h-170v-171zM171 512h170v171h-170v-171zM171 171h170v170h-170v-170zM0 1536v256q0 36 25 61t60 24h256v171h171v-171h853v171h171v-171h256q36 -1 61 -25t24 -60v-256
h-1877zM0 85v1280h1877v-1280q-1 -33 -25 -59t-60 -26h-1707q-37 0 -61 26t-24 59z" />
    <glyph glyph-name="uniE110" unicode="&#xe110;" 
d="M1877 683v338l512 -504l-512 -512v336h-411l-309 309l241 243l208 -210h271zM0 1365v342h582l309 -308l-241 -242l-208 208h-442zM0 341v342h442l1024 1024h411v338l512 -504l-512 -512v336h-271l-1024 -1024h-582z" />
    <glyph glyph-name="uniE111" unicode="&#xe111;" 
d="M0 1707q0 70 50 120t121 50h1706q71 0 121 -50t50 -120v-1024q0 -71 -50 -121t-121 -50h-1017l-519 -512v512h-170q-70 0 -121 50q-50 50 -50 121v1024z" />
    <glyph glyph-name="uniE112" unicode="&#xe112;" 
d="M1365 1536v512h512v-512h-512zM171 1536v512h512v-512h-512zM171 1365h512v-554q0 -108 10 -141q27 -88 52 -110q54 -47 123 -67t174 -20q301 0 320 266q5 84 3 157v469h512v-341q-1 -159 -37 -351t-145 -352q-70 -101 -157 -167t-220 -110t-294 -44q-452 0 -666 316
q-187 272 -187 708v341z" />
    <glyph glyph-name="uniE113" unicode="&#xe113;" 
d="M-51 701l990 989l986 -989l-386 -387l-602 602l-601 -602z" />
    <glyph glyph-name="uniE114" unicode="&#xe114;" 
d="M119 1360l388 388l601 -603l602 603l386 -388l-987 -988z" />
    <glyph glyph-name="uniE115" unicode="&#xe115;" 
d="M2045 1707v-1024h341l-510 -483l-511 483h338v682h-650l-367 342h1359zM338 1195v-683h657l367 -341h-1365v1024h-335l510 483l512 -483h-346z" />
    <glyph glyph-name="uniE116" unicode="&#xe116;" 
d="M114 1707h1530l64 276q20 65 84 65h160q34 0 60 -25t26 -61t-26 -60q-26 -25 -60 -25h-92l-343 -1640q-7 -24 -39 -45t-60 -21h-53v-86q-1 -33 -25 -59t-60 -26t-61 26t-24 59v86h-512v-86q0 -33 -25 -59t-61 -26q-37 0 -61 26t-24 59v86h-85q-36 -1 -61 25t-25 61t25 60
t61 24h913l82 342h-1081q-51 0 -90 34t-50 75l-170 811q-9 41 16 73t67 31z" />
    <glyph glyph-name="uniE117" unicode="&#xe117;" 
d="M0 1536v171h341q1 70 51 120t120 50h512q70 0 120 -50t51 -120h853v-171h-2048zM0 0v1365h2048v-1365h-2048z" />
    <glyph glyph-name="uniE118" unicode="&#xe118;" 
d="M2 1707h341q0 70 50 120t121 50h512q70 0 120 -50t50 -120h854v-342h-1707l-341 -682v1024zM2 0l512 1195h2048l-512 -1195h-2048z" />
    <glyph glyph-name="uniE119" unicode="&#xe119;" 
d="M853 512v1024h-338l509 512l509 -512h-338v-1024h338l-509 -512l-509 512h338z" />
    <glyph glyph-name="uniE120" unicode="&#xe120;" 
d="M512 1195h1024v338l512 -509l-512 -507v336h-1024v-336l-512 507l512 509v-338z" />
    <glyph glyph-name="uniE121" unicode="&#xe121;" 
d="M1707 171h170v170h-170v-170zM1365 171h171v170h-171v-170zM451 2048h1146q31 0 63 -38t42 -78l293 -1249h-1942l293 1261q10 40 41 72t64 32zM0 341q0 71 50 121t121 50h1706q71 0 121 -50t50 -121v-170q0 -71 -50 -121t-121 -50h-1706q-70 0 -121 50q-50 50 -50 121
v170z" />
    <glyph glyph-name="uniE122" unicode="&#xe122;" 
d="M1877 1792q0 36 25 61t60 25q34 0 60 -26q26 -24 26 -60v-1451q0 -33 -26 -59t-60 -26t-60 26q-25 26 -25 59v1451zM171 1319q0 39 30 46h354l1152 427v-1451l-1152 342h-65l80 -471q7 -39 -24 -40q-7 -2 -36 -1h-155q-34 0 -59 24t-31 59q-94 570 -94 599v466z
M-172 1109q0 37 40 81t88 68l42 22v-427q-3 1 -35 17t-84 61t-51 93v85z" />
    <glyph glyph-name="uniE123" unicode="&#xe123;" 
d="M1024 0q-60 0 -108 52t-68 136q185 -22 350 0q-18 -84 -66 -136t-108 -52zM126 598q0 35 23 60t58 25h30l200 295l107 558q26 133 130 240t246 141l-31 54q-10 33 5 55t50 22h160q34 0 50 -18t5 -50q-31 -61 -31 -63q140 -32 245 -140t131 -241l107 -558l201 -295h29
q33 0 57 -25t24 -60t-22 -69q-22 -33 -47 -43q-145 -55 -364 -99q-219 -43 -441 -43t-429 31q-207 32 -319 72l-99 34q-31 12 -53 47t-22 70z" />
    <glyph glyph-name="uniE124" unicode="&#xe124;" 
d="M36 759l305 265l-305 266l397 75l-133 384l383 -133l76 398l265 -307l265 307l76 -398l383 133l-133 -384l399 -75l-307 -266l307 -265l-399 -76l133 -383l-383 133l-76 -397l-265 305l-265 -305l-76 397l-383 -133l133 383z" />
    <glyph glyph-name="uniE125" unicode="&#xe125;" 
d="M683 512h170l232 -171h366l426 640v214h-768l86 384v298h-86l-170 -361l-256 -364v-640zM512 469v683q0 63 34 108l248 334l163 338q26 48 67 82t85 34h86q65 0 117 -68t53 -145v-256q0 -15 -47 -214h559q65 0 118 -68t53 -145v-171q0 -72 -49 -126l-407 -587
q-63 -97 -141 -97h-427q-26 0 -237 170h-104q-171 0 -171 128zM0 341v1024h341v-1024h-341z" />
    <glyph glyph-name="uniE126" unicode="&#xe126;" 
d="M1195 171v298l-86 384h768v214l-426 640h-366l-232 -171h-170v-640l256 -362l170 -363h86zM512 1579q0 128 171 128h104q212 171 237 170h427q77 0 141 -97l407 -587q49 -55 49 -126v-171q0 -77 -53 -145t-118 -68h-559q48 -198 47 -214v-256q0 -77 -53 -145t-117 -68
h-86q-44 0 -85 33t-67 83l-163 338l-248 334q-34 44 -34 108v683zM0 683v1024h341v-1024h-341z" />
    <glyph glyph-name="uniE127" unicode="&#xe127;" 
d="M1673 1024h346q26 0 42 25t16 61t-16 61q-16 24 -42 24h-804q-36 0 -53 25q-18 45 9 80l251 313l-147 141l-579 -402v-859l171 -152h500l224 579q12 40 35 72t47 32zM526 1365q0 27 22 59t49 51l642 407q59 25 92 -10l186 -191q24 -25 24 -57t-19 -56l-145 -206h516
q148 0 238 -67q89 -67 89 -186t-91 -187t-238 -69h-183l-221 -578q-12 -41 -36 -73t-48 -31h-582q-14 0 -155 139t-140 159v896zM14 341v1024h341v-1024h-341z" />
    <glyph glyph-name="uniE128" unicode="&#xe128;" 
d="M1707 343v1024h341v-1024h-341zM-2 1026h379q24 0 47 -32t35 -72l224 -579h500l182 152v857l-585 404l-149 -141l248 -315q17 -17 17 -44t-14 -41q-14 -15 -24 -17q-11 -2 -23 -2h-837v-170zM765 1894q22 0 46 -10l623 -392q17 -10 34 -21q16 -11 42 -45t26 -59v-898
q0 -20 -146 -158t-161 -139h-582q-26 0 -49 32t-35 72l-222 579h-182q-142 0 -238 67q-93 68 -93 188t90 187t239 67l515 -2l-145 206q-42 64 5 113l187 193q24 20 46 20z" />
    <glyph glyph-name="uniE129" unicode="&#xe129;" 
d="M683 0v341h1024v-341h-1024zM1024 1661v344q0 36 -43 52t-85 0t-43 -52v-802l-1 -22q-7 -21 -24 -31q-43 -22 -80 9l-313 249l-141 -147l402 -578h859l152 170v502l-579 222q-39 12 -72 35q-32 23 -32 49zM686 1881q0 148 67 238q67 89 186 89t187 -92t69 -239v-181
l578 -223q39 -12 71 -35t33 -47v-584q0 -15 -139 -155t-159 -140h-896q-27 0 -61 25t-42 39t-15 22t-7 10l-392 619q-27 53 10 91l191 187q23 22 55 23t58 -19l206 -144v516z" />
    <glyph glyph-name="uniE130" unicode="&#xe130;" 
d="M521 1884v341h1024v-341h-1024zM691 1024v-804q0 -38 43 -53q44 -15 86 1t42 52v345q0 24 32 48t70 36l581 221v502l-152 171h-859l-403 -579l140 -147l314 250q39 31 73 13t33 -56zM521 1713h896q20 -1 159 -141t139 -154v-583q0 -24 -32 -47t-72 -35l-578 -224v-181
q-1 -147 -69 -239t-187 -92q-119 1 -187 91t-68 232t2 259v261l-207 -145q-26 -19 -58 -18t-54 23l-191 188q-38 37 -11 90l408 644q19 27 51 49t59 22z" />
    <glyph glyph-name="uniE131" unicode="&#xe131;" 
d="M1021 1196h-512l3 -343h512l-3 -331l686 502l-686 509v-337zM9 1019q0 205 79 393t219 329q140 140 329 219t393 79q275 1 510 -135t372 -373t137 -512t-136 -510t-372 -372t-511 -137t-511 137t-372 371q-137 234 -137 511z" />
    <glyph glyph-name="uniE132" unicode="&#xe132;" 
d="M1027 1196v337l-686 -509l686 -502l-3 331h512l3 343h-512zM0 1019q0 205 79 393t219 329q140 140 330 219q188 79 392 79t392 -79t329 -219q140 -140 219 -329t79 -393q1 -275 -135 -510t-373 -372t-512 -137t-510 136t-372 372t-137 511z" />
    <glyph glyph-name="uniE133" unicode="&#xe133;" 
d="M853 1024v-512h342v512h341l-512 683l-512 -683h341zM9 1019q0 205 79 393t219 329q140 140 329 219t393 79q275 1 510 -135t372 -373t137 -512t-136 -510t-372 -372t-511 -137t-511 137t-372 371q-137 234 -137 511z" />
    <glyph glyph-name="uniE134" unicode="&#xe134;" 
d="M1195 1024v512h-342v-512h-341l512 -683l512 683h-341zM9 1019q0 205 79 393t219 329q140 140 329 219t393 79q275 1 510 -135t372 -373t137 -512t-136 -510t-372 -372t-511 -137t-511 137t-372 371q-137 234 -137 511z" />
    <glyph glyph-name="uniE135" unicode="&#xe135;" 
d="M970 1640q14 0 25 10q31 34 51 46q0 -38 26 -104t25 -76q0 -9 -18 -5t-84 14t-111 38q5 21 27 51t28 43q17 -17 31 -17zM1039 692q2 34 2 50q1 16 -13 21t-40 11t-34 9q9 89 -31 118q-22 15 -66 -34q-38 -39 -72 7t-14 99q10 27 38 37q7 -2 62 -3t73 -29q43 -67 112 -111
l24 -14q0 7 16 69t10 100q-6 36 26 74q15 15 23 29q7 13 13 19t5 17q7 21 11 30t2 17q10 44 16 58q18 43 83 70q-10 31 17 63q47 0 82 -5q43 0 70 34q-31 72 -116 125q-75 38 -112 58q-37 21 -47 26q19 68 4 75q108 -44 165 -19l19 7q10 58 -25 88t-108 50t-101 41
q-32 -5 -63 0q-83 -66 -263 -80q-27 -5 -77 1t-82 -4q-30 -10 -84 -44q-90 -55 -47 -98q15 -20 14 -33q-5 -59 -47 -155t-54 -144t12 -148q24 -101 14 -150q0 -14 29 -75t27 -102q32 -1 62 -23t51 -36q41 -20 184 -71q31 -10 90 -53q123 -96 200 -85q11 -31 -27 -95t-33 -97
q72 -121 149 -136q0 -11 -7 -33t3 -47q177 -5 378 191q106 102 138 161q31 59 36 108q-22 14 -62 16q-40 1 -62 13t-83 25q-60 13 -90 34q-75 1 -153 -3t-127 -40q-84 -58 -113 -21q-9 3 -7 37zM9 1019q0 205 79 393t219 329q140 140 329 219q188 79 392 79t393 -79
t329 -219t218 -329q80 -189 80 -393q0 -275 -136 -510t-372 -372t-511 -137t-511 137t-372 371q-137 234 -137 511z" />
    <glyph glyph-name="uniE136" unicode="&#xe136;" 
d="M0 281q0 37 26 64l1024 1022q-56 174 10 345q67 171 230 263q280 155 522 -16l-442 -235l248 -396l428 215q21 -282 -223 -436q-142 -89 -311 -87q-82 1 -155 28l-1017 -1017q-26 -27 -63 -27t-62 27l-189 187q-26 26 -26 63z" />
    <glyph glyph-name="uniE137" unicode="&#xe137;" horiz-adv-x="2082" 
d="M1536 1700h341v171h-341v-171zM1365 335h512v170h-512v-170zM1024 1017h853v171h-853v-171zM0 1871q0 70 50 120t121 50h1706q71 0 121 -50t50 -120v-171q0 -70 -50 -120t-121 -51h-1706q-71 1 -121 51t-50 120v171zM0 1188q0 70 50 120t121 51h1706q71 -1 121 -51
t50 -120v-171q0 -70 -50 -120t-121 -50h-1706q-70 0 -121 50q-50 50 -50 120v171zM0 505q0 70 50 120t121 51h1706q71 0 121 -50t50 -121v-170q0 -71 -50 -121t-121 -50h-1706q-70 0 -121 50q-50 50 -50 121v170z" />
    <glyph glyph-name="uniE138" unicode="&#xe138;" 
d="M256 1707h1536l-597 -854v-512l-342 -341v853zM171 1877v171h1706v-171h-1706z" />
    <glyph glyph-name="uniE139" unicode="&#xe139;" 
d="M853 1707h342v170h-342v-170zM0 853v683q0 70 50 120t121 51h512v170q0 71 50 121t120 50h342q70 0 120 -50t50 -121v-170h512q71 -1 121 -51t50 -120v-683h-853v171h-342v-171h-853zM0 683h2048v-342q0 -70 -50 -120t-121 -50h-1706q-70 0 -121 50q-50 50 -50 120v342z
" />
    <glyph glyph-name="uniE140" unicode="&#xe140;" 
d="M2048 2048v-683l-220 220l-341 -341l-243 243l341 341l-220 220h683zM2048 0h-683l220 220l-341 341l243 243l341 -341l220 220v-683zM0 2048h683l-220 -220l341 -341l-243 -243l-341 341l-220 -220v683zM0 0v683l220 -220l341 341l243 -243l-341 -341l220 -220h-683z
" />
    <glyph glyph-name="uniE141" unicode="&#xe141;" 
d="M1459 1210q39 0 65 -26t27 -66q0 -40 -27 -66q-28 -28 -66 -28t-66 28t-27 66q-1 38 27 65t67 27zM1174 1032q0 -54 -44 -98t-104 -44q-61 0 -105 44t-44 102t35 100t88 50l210 217q-15 24 -15 55q0 30 27 58t66 28q40 0 66 -26q26 -28 26 -67t-26 -67q-28 -28 -60 -27
q-32 0 -55 17l-94 -248q29 -40 29 -94zM683 1451q0 37 27 65t66 28q40 0 66 -26q26 -28 26 -67t-26 -67q-28 -28 -66 -27q-38 0 -65 28q-28 28 -28 66zM497 1118q0 40 26 66q25 26 65 26t67 -27t27 -65t-26 -66q-28 -28 -66 -28t-66 27q-27 27 -27 67zM311 1016
q0 -294 207 -500t499 -206t499 208q208 206 208 498t-208 500t-499 208q-292 0 -499 -208t-207 -500zM1018 0q-276 0 -510 136t-370 370q-138 234 -138 510t136 510t370 372t510 136q276 0 510 -136t372 -370t136 -510q0 -276 -136 -510t-370 -370q-234 -138 -510 -138z" />
    <glyph glyph-name="uniE142" unicode="&#xe142;" 
d="M1456 2048q156 0 282 -58t213 -174q87 -114 115 -268t-20 -308t-162 -267l-882 -872l-118 102l-12 12l432 437l430 425q154 155 168 325t-88 302q-129 168 -345 168q-173 0 -352 -160q-83 -77 -115 -113l-594 -594q-34 -34 -114 -107t-128 -140q-75 -102 -59 -213
t90 -169t186 -59q112 0 201 89l933 934q58 61 35 125t-91 64q-46 0 -85 -39q-39 -32 -67 -65l-643 -637l-118 115l676 688q63 63 118 89t131 27q5 0 49 -4q154 -27 200 -177q26 -80 6 -164t-81 -143l-672 -673q-5 -5 -54 -58t-70 -75t-38 -41q-16 -19 -20 -22t-16 -16
q-11 -13 -17 -17q-6 -5 -17 -15t-19 -16t-18 -14q-159 -134 -334 -134q-119 0 -220 55t-161 152q-82 133 -59 295q22 162 138 278l874 874q138 138 247 197t265 59z" />
    <glyph glyph-name="uniE143" unicode="&#xe143;" 
d="M427 1338q0 -43 58 -129t261 -281l37 -37q154 -148 325 -343q148 164 332 346l21 21q149 146 196 199q47 54 90 114t43 110q0 118 -80 202t-193 84t-213 -141l-201 -292l-195 297q-86 137 -200 137q-114 1 -198 -85t-83 -202zM137 1338q0 224 168 392q169 168 403 168
t401 -220q177 220 409 220t397 -168q166 -168 165 -392q0 -159 -121 -310t-322 -347q-335 -324 -500 -550l-29 -39l-28 39q-148 198 -286 337t-269 266t-260 287q-128 160 -128 317z" />
    <glyph glyph-name="uniE144" unicode="&#xe144;" 
d="M459 1206q0 160 113 270l483 483q109 113 269 113t273 -113l241 -240q113 -113 113 -272q1 -70 -45 -160t-109 -154l-49 -49q-48 82 -132 170l-31 29l163 164l-422 422l-664 -664l362 -362l-179 -179q-27 24 -33 29l-240 241q-113 112 -113 272zM97 600q0 160 113 274
l94 94q49 -96 128 -173l31 -30l-163 -163l422 -423l664 664l-362 362l179 179q20 -15 33 -29l240 -241q113 -114 113 -272t-113 -270l-483 -483q-113 -113 -269 -113t-273 113l-241 242q-113 109 -113 269z" />
    <glyph glyph-name="uniE145" unicode="&#xe145;" 
d="M1024 79q73 0 125 52t52 125t-52 125q-51 52 -125 52t-126 -52t-52 -125t53 -125q52 -52 125 -52zM512 512h1024v1195h-1024v-1195zM341 1797q0 73 194 162q195 89 493 89t488 -88t191 -163v-1626q-1 -71 -51 -121t-120 -50h-1024q-70 0 -120 50t-51 121v1626z" />
    <glyph glyph-name="uniE146" unicode="&#xe146;" 
d="M1394 1962q0 38 25 62t61 24t59 -26l483 -481q26 -25 26 -61t-25 -61t-61 -25t-59 26l-62 60l-476 -456v-512l-361 358l-355 -353l-649 -517l517 649l353 355l-358 361h512l456 476l-60 62q-26 22 -26 59z" />
    <glyph glyph-name="uniE148" unicode="&#xe148;" 
d="M1485 662q0 104 -71 166t-219 107v-531q290 31 290 258zM795 1532q0 -104 43 -160q32 -46 116 -65q9 -2 24 -6q16 -5 26 -7t20 -5v467q-113 -15 -171 -68q-58 -52 -58 -156zM517 1474q0 163 73 280q134 215 434 245v133h171v-135q131 -14 264 -84t198 -227
q36 -89 41 -203h-271q-15 130 -63 191t-169 82v-524l109 -24q125 -26 229 -82q135 -73 196 -225q34 -89 34 -193q0 -237 -152 -382t-416 -164v-131h-171v133q-258 27 -404 177q-65 65 -88 152t-29 246h238q9 -131 82 -216q74 -84 201 -110v572l-46 12q-167 53 -246 99
q-78 46 -118 96q-96 119 -97 282z" />
    <glyph glyph-name="uniE149" unicode="&#xe149;" 
d="M171 1024v171h283q-46 95 -78 181t-27 188q8 195 160 329q166 150 448 150q222 0 394 -153t171 -354h-261q0 84 -55 148t-128 91q-74 26 -134 26t-132 -25t-105 -61q-70 -75 -70 -172q-1 -43 25 -112t46 -104t75 -132h412v-171h-337q14 -85 -4 -196t-54 -161
q-70 -102 -169 -193q55 17 139 30t128 14t171 -28q126 -29 177 -29q130 0 232 51l85 -251q-125 -75 -237 -84q-44 -3 -94 -3t-231 56q-180 56 -264 50q-140 -14 -252 -72l-41 -19l-94 248q5 3 26 18q20 15 36 23t39 30q136 124 147 259q11 136 -50 257h-377z" />
    <glyph glyph-name="uniE150" unicode="&#xe150;" 
d="M1707 1536v-1536h-342v1536h-338l509 512l509 -512h-338zM341 512v1536h342v-1536h338l-509 -512l-509 512h338z" />
    <glyph glyph-name="uniE151" unicode="&#xe151;" 
d="M1367 1536h171v341h-171v-341zM1195 1195v853h512v-853h-171v170h-171v-170h-170zM1195 683v170h512v-341h-169v-171h-171v171h169v171h-341zM1195 0v341h170v-170h342v-171h-512zM341 512v1536h342v-1536h338l-509 -512l-509 512h338z" />
    <glyph glyph-name="uniE152" unicode="&#xe152;" 
d="M1367 341h171v342h-171v-342zM1195 1877v171h512v-341h-169v-171h-171v171h169v170h-341zM1195 1195v341h170v-171h342v-170h-512zM1195 0v853h512v-853h-171v171h-171v-171h-170zM341 512v1536h342v-1536h338l-509 -512l-509 512h338z" />
    <glyph glyph-name="uniE153" unicode="&#xe153;" 
d="M1538 341h170v342h-170v-342zM1365 1877v171h342v-853h-171v682h-171zM1365 171v682h512v-853h-170v171h-342zM341 512v1536h342v-1536h338l-509 -512l-509 512h338z" />
    <glyph glyph-name="uniE154" unicode="&#xe154;" 
d="M1538 1536h170v341h-170v-341zM1365 1365v683h512v-853h-170v170h-342zM1365 683v170h342v-853h-171v683h-171zM341 512v1536h342v-1536h338l-509 -512l-509 512h338z" />
    <glyph glyph-name="uniE155" unicode="&#xe155;" 
d="M1195 1707v341h341v-341h-341zM1195 1195v341h512v-341h-512zM1195 683v341h682v-341h-682zM1195 171v341h853v-341h-853zM341 512v1536h342v-1536h338l-509 -512l-509 512h338z" />
    <glyph glyph-name="uniE156" unicode="&#xe156;" 
d="M1195 1707v341h853v-341h-853zM1195 1195v341h682v-341h-682zM1195 683v341h512v-341h-512zM1195 171v341h341v-341h-341zM341 512v1536h342v-1536h338l-509 -512l-509 512h338z" />
    <glyph glyph-name="uniE157" unicode="&#xe157;" 
d="M341 512q1 -70 51 -120t120 -51h853q71 1 121 51t50 120v853q0 71 -50 121t-121 50h-853q-70 0 -120 -50t-51 -121v-853zM0 1195q0 283 201 483t482 199h512q276 0 479 -202t203 -480v-512q0 -279 -202 -481t-480 -202h-512q-283 0 -483 201t-200 482v512z" />
    <glyph glyph-name="uniE158" unicode="&#xe158;" 
d="M683 512v853l568 -426zM341 512q1 -70 51 -120t120 -51h853q71 1 121 51t50 120v853q0 71 -50 121t-121 50h-853q-70 0 -120 -50t-51 -121v-853zM0 1195q0 278 203 480t480 202h512q283 -1 483 -201t199 -481v-512q-1 -283 -201 -483t-481 -200h-512q-278 0 -481 201
q-202 201 -202 482v512z" />
    <glyph glyph-name="uniE159" unicode="&#xe159;" 
d="M512 1195h853l-426 -569zM341 512q1 -70 51 -120t120 -51h853q71 1 121 51t50 120v853q0 71 -50 121t-121 50h-853q-70 0 -120 -50t-51 -121v-853zM0 1195q0 278 201 480t482 202h512q278 0 480 -203t202 -479v-512q-1 -283 -201 -483t-481 -200h-512q-283 0 -483 201
t-200 482v512z" />
    <glyph glyph-name="uniE160" unicode="&#xe160;" 
d="M512 683l427 568l426 -568h-853zM341 512q1 -70 51 -120t120 -51h853q71 1 121 51t50 120v853q0 71 -50 121t-121 50h-853q-70 0 -120 -50t-51 -121v-853zM0 1195q0 283 201 483t482 199h512q283 -1 483 -201t199 -481v-512q0 -275 -202 -479t-480 -204h-512
q-280 0 -482 202q-201 202 -201 481v512z" />
    <glyph glyph-name="uniE161" unicode="&#xe161;" 
d="M853 0v341h854q70 1 120 51t50 120v853q0 71 -50 121t-120 50h-854v341h683q282 -1 482 -201t201 -481v-512q0 -283 -201 -483t-482 -200h-683zM0 683v512h512v341l683 -597l-683 -598v342h-512z" />
    <glyph glyph-name="uniE162" unicode="&#xe162;" 
d="M1338 2017h15l16 -15q12 -20 9 -40q-2 -20 -88 -259t-120 -335t-47 -134q-14 -38 -14 -41l514 2q39 0 54 -29t-10 -62l-223 -261q-681 -797 -699 -818q-17 -22 -42 -22h-15l-16 14q-15 17 -8 47t275 789h-516q-41 1 -53 33q-17 38 11 70q73 84 747 845q152 167 168 191
t42 25z" />
    <glyph glyph-name="uniE163" unicode="&#xe163;" 
d="M1024 683v512h512v341l683 -597l-683 -598v342h-512zM0 683v512q0 283 201 483t482 199l158 -3q485 -12 524 -22v-316h-853q-70 0 -120 -50t-51 -121v-853q1 -70 51 -120t120 -51h853v-315q-89 -26 -170 -26h-512q-283 0 -483 200t-200 483z" />
    <glyph glyph-name="uniE164" unicode="&#xe164;" 
d="M2048 2048v-853l-254 254l-584 -602l-363 363l602 584l-254 254h853zM0 683v512q0 283 201 483t482 199h170l127 -133l-202 -208h-266q-70 0 -120 -50t-51 -121v-853q1 -70 51 -120t120 -51h853q71 1 121 51t50 120v253l208 210l133 -125v-167q0 -279 -202 -481
t-480 -202h-512q-283 0 -483 200t-200 483z" />
    <glyph glyph-name="uniE165" unicode="&#xe165;" 
d="M693 1024q0 137 97 234t234 97t234 -97t97 -234t-97 -234t-234 -97t-234 97t-97 234zM1731 1024q1 292 -207 499t-500 207t-498 -206q-208 -208 -208 -500t206 -499q208 -207 500 -207t499 206q207 208 208 500zM1905 515q-137 -233 -371 -371t-510 -138t-509 136
t-371 371t-138 511t137 509t371 371t510 138t509 -137t371 -371t138 -510t-137 -509z" />
    <glyph glyph-name="uniE166" unicode="&#xe166;" 
d="M1536 256h171v85h-171v-85zM683 1365v683h512v-683h503l-768 -853l-759 853h512zM0 0v469q0 43 43 43h1788q19 0 33 -13t13 -30v-469h-1877z" />
    <glyph glyph-name="uniE167" unicode="&#xe167;" 
d="M1536 256h171v85h-171v-85zM1195 1195v-512h-512v512h-512l768 853l759 -853h-503zM0 0v469q0 43 43 43h1788q19 0 33 -13t13 -30v-469h-1877z" />
    <glyph glyph-name="uniE168" unicode="&#xe168;" 
d="M1536 256h171v85h-171v-85zM171 1203l264 265l256 -258l755 754l262 -264l-1017 -1017zM0 0v469q0 43 43 43h1788q19 0 33 -13t13 -30v-469h-1877z" />
    <glyph glyph-name="uniE169" unicode="&#xe169;" 
d="M1536 256h171v85h-171v-85zM341 683l407 425l-255 254l362 362l254 -255l427 408l-5 -1193zM171 1686l361 362l166 -166l-362 -363zM0 0v469q0 43 43 43h1788q19 0 33 -13t13 -30v-469h-1877z" />
    <glyph glyph-name="uniE170" unicode="&#xe170;" 
d="M1536 256h171v85h-171v-85zM512 2048l1193 -5l2 -1190l-425 405l-255 -253l-361 362l254 254zM341 1044l166 166l363 -362l-167 -165zM0 0v469q0 43 43 43h1788q19 0 33 -13t13 -30v-469h-1877z" />
    <glyph glyph-name="uniE171" unicode="&#xe171;" 
d="M843 358l1147 1601l-1147 -1215v-386zM708 708h-669l2009 1338v-1841l-811 464l-529 -671v710z" />
    <glyph glyph-name="uniE172" unicode="&#xe172;" 
d="M1024 1707v341h171v-341h-171zM0 1963q0 33 25 59t60 26h427v-512h853v512h171l341 -341v-1451q1 -36 -25 -61t-60 -24h-256v682h-1195v-682h-256q-37 1 -61 25t-24 60v1707z" />
    <glyph glyph-name="uniE173" unicode="&#xe173;" 
d="M1024 1707v341h171v-341h-171zM992 522l209 210l205 -205l603 601l210 -210l-811 -812zM0 1963q0 33 25 59t60 26h427v-512h853v512h171l341 -341v-372l-471 -470l-205 205l-215 -217h-645v-682h-256q-37 1 -61 25t-24 60v1707z" />
    <glyph glyph-name="uniE174" unicode="&#xe174;" 
d="M1195 227l290 290l-290 290l216 217l291 -290l290 290l216 -218l-290 -289l290 -290l-216 -217l-290 290l-291 -290zM1024 1707v341h171v-341h-171zM0 1963q0 33 25 59t60 26h427v-512h853v512h171l341 -341v-459l-175 -176l-291 290l-508 -509h-562v-682h-256
q-37 1 -61 25t-24 60v1707z" />
    <glyph glyph-name="uniE175" unicode="&#xe175;" 
d="M1024 1707v341h171v-341h-171zM1365 512v512h342v-512h341l-512 -512l-512 512h341zM0 1963q0 33 25 59t60 26h427v-512h853v512h171l341 -341v-512h-682v-342h-854v-682h-256q-37 1 -61 25t-24 60v1707z" />
    <glyph glyph-name="uniE176" unicode="&#xe176;" 
d="M1024 1707v341h171v-341h-171zM1707 512v-512h-342v512h-341l512 512l512 -512h-341zM0 1963q0 33 25 59t60 26h427v-512h853v512h171l341 -341v-686l-341 341l-509 -509h-686v-682h-256q-37 1 -61 25t-24 60v1707z" />
    <glyph glyph-name="uniE177" unicode="&#xe177;" 
d="M171 512h682v341h-682v-341zM0 1536v256q0 36 25 61t60 24h1878q37 -1 61 -25t24 -60v-256h-2048zM0 427v938h2048v-938q0 -36 -25 -61t-60 -25h-1878q-37 0 -61 25t-24 61z" />
    <glyph glyph-name="uniE178" unicode="&#xe178;" 
d="M1707 512v341h170v-341h-170zM1365 512v341h171v-341h-171zM853 1365v342h683v338l512 -509l-512 -509v338h-683zM512 1365v342h171v-342h-171zM171 1365v342h170v-342h-170zM512 853h683v-341h-683v-338l-512 509l512 508v-338z" />
    <glyph glyph-name="uniE179" unicode="&#xe179;" 
d="M1365 1019v613q0 51 32 111t74 88l471 198q44 29 75 13t31 -69v-1888q0 -37 -25 -61t-60 -24h-342q-37 0 -61 25t-24 60v678q-58 27 -109 89q-62 68 -62 167zM341 1365h171v512l85 171l86 -171v-512h170v512l86 171l85 -171v-682l-171 -347v-763q-1 -37 -25 -61t-60 -24
h-341q-36 0 -61 25t-25 60v763l-170 347v682l85 171l85 -171v-512z" />
    <glyph glyph-name="uniE180" unicode="&#xe180;" 
d="M171 0v96l42 3q46 2 87 25t41 57v1515q0 22 -18 41t-44 29t-90 16h-18v95h682v-95q-128 0 -149 -10t-21 -76v-672h853v672q0 65 -20 76q-24 10 -151 10v95h683v-95l-43 -4q-46 -2 -87 -24t-41 -58v-1515q0 -46 54 -65q70 -25 117 -20v-96h-683v96q126 0 151 10
q20 10 20 75v672h-853v-672q0 -65 21 -75t149 -10v-96h-682z" />
    <glyph glyph-name="uniE181" unicode="&#xe181;" 
d="M1195 686v278l682 227v-278zM1877 1707v-342h-179l-503 -167v167l-342 342h-682l170 170h640l171 -170h725zM171 1024h512v341h-512v-341zM171 512h512v341h-512v-341zM1877 171h-725l-171 -171h-640l-170 171h682l342 341h179l503 167v-508zM0 512v853q0 71 50 121
t121 50h512q70 0 120 -50t50 -121v-853q0 -70 -50 -120t-120 -51h-512q-71 1 -121 51t-50 120z" />
    <glyph glyph-name="uniE182" unicode="&#xe182;" 
d="M29 1719l276 276q31 29 69 24t63 -38l237 -331q24 -34 19 -76t-34 -70l-202 -202q352 -493 845 -845l202 202q27 29 71 32t77 -20l328 -232q32 -26 38 -64t-23 -70l-278 -276l-53 -2q-125 0 -391 110q-135 53 -314 180t-345 293t-295 348q-128 180 -180 301t-81 240
q-39 159 -29 220z" />
    <glyph glyph-name="uniE183" unicode="&#xe183;" 
d="M0 1215v341l15 18q26 32 141 106t334 136q219 61 477 61q471 0 750 -111q94 -38 181 -92t112 -77q25 -24 38 -41v-341q0 -36 -25 -57t-59 -15l-344 57q-34 7 -59 36t-25 64v250q-241 41 -512 41t-512 -41v-250q0 -36 -25 -64t-59 -36l-344 -57q-34 -7 -59 15t-25 57z
M0 447q0 34 18 78t42 67l623 517v86q0 25 22 55t51 50q89 56 273 56q183 0 257 -52q74 -53 78 -92l1 -17v-86l623 -517q24 -24 42 -68t18 -77v-362q0 -37 -25 -61t-60 -24h-1878q-33 0 -59 25t-26 60v362z" />
    <glyph glyph-name="uniE184" unicode="&#xe184;" 
d="M341 1877h171v-341h171v341h341v-341h171v341h341v-341h171v341h170v-682l-170 -171v-427l213 -256h-1621l213 256v427l-171 171v682zM171 0v171h1877v-171h-1877z" />
    <glyph glyph-name="uniE185" unicode="&#xe185;" 
d="M1536 0v1195q0 70 50 120t121 50h170q71 0 121 -50t50 -120v-1195h-512zM853 0v1707q1 70 51 120t120 50h171q70 0 120 -50t50 -120v-1707h-512zM171 0v683q0 70 50 120t120 50h171q70 0 120 -50t51 -120v-683h-512z" />
    <glyph glyph-name="uniE186" unicode="&#xe186;" 
d="M1024 512v853h341v-170h-170v-512h170v512h171v-512h-171v-171h-341zM341 512v171h342v170h-342v512h512v-170h-341v-171h341v-512h-512zM171 341h1536v1195h-1536v-1195zM-171 1365q1 212 151 362t361 150h1195q212 0 362 -150t150 -362v-853q0 -212 -150 -362
t-362 -150h-1195q-211 0 -361 150t-151 362v853z" />
    <glyph glyph-name="uniE187" unicode="&#xe187;" 
d="M1024 512v853h341v-170h-170v-512h170v512h171v-512h-171v-171h-341zM341 512v853h171v-341h171v341h170v-853h-170v341h-171v-341h-171zM171 341h1536v1195h-1536v-1195zM-171 1365q1 212 151 362t361 150h1195q212 0 362 -150t150 -362v-853q0 -212 -150 -362
t-362 -150h-1195q-211 0 -361 150t-151 362v853z" />
    <glyph glyph-name="uniE188" unicode="&#xe188;" 
d="M1024 512v853h512v-170h-341v-512h341v-171h-512zM341 512v853h512v-170h-341v-512h341v-171h-512zM171 341h1536v1195h-1536v-1195zM-171 1365q1 212 151 362t361 150h1195q212 0 362 -150t150 -362v-853q0 -212 -150 -362t-362 -150h-1195q-211 0 -361 150t-151 362
v853z" />
    <glyph glyph-name="uniE189" unicode="&#xe189;" 
d="M1024 683v512l512 -256zM341 939l512 256v-512zM171 341h1536v1195h-1536v-1195zM-171 1365q1 212 151 362t361 150h1195q212 0 362 -150t150 -362v-853q0 -212 -150 -362t-362 -150h-1195q-211 0 -361 150t-151 362v853z" />
    <glyph glyph-name="uniE190" unicode="&#xe190;" 
d="M1365 683v512h-222q-65 -1 -113 -75t-48 -184t45 -182q46 -72 116 -71h222zM512 683h222q70 -1 116 71t46 182t-48 184t-114 75h-222v-512zM341 512v853h1195v-853h-1195zM171 341h1536v1195h-1536v-1195zM-171 1365q1 212 151 362t361 150h1195q212 0 362 -150t150 -362
v-853q0 -212 -150 -362t-362 -150h-1195q-211 0 -361 150t-151 362v853z" />
    <glyph glyph-name="uniE191" unicode="&#xe191;" 
d="M1195 1195v170h341v-853h-171v683h-170zM1026 512v171h170v-171h-170zM341 512v171h342v170h-342v512h512v-170h-341v-171h341v-512h-512zM171 341h1536v1195h-1536v-1195zM-171 1365q1 212 151 362t361 150h1195q212 0 362 -150t150 -362v-853q0 -212 -150 -362
t-362 -150h-1195q-211 0 -361 150t-151 362v853z" />
    <glyph glyph-name="uniE192" unicode="&#xe192;" 
d="M1195 1195v170h341v-853h-171v683h-170zM1026 512v171h170v-171h-170zM514 683h170v341h-170v-341zM341 512v853h171v-170h341v-683h-512zM171 341h1536v1195h-1536v-1195zM-171 1365q1 212 151 362t361 150h1195q212 0 362 -150t150 -362v-853q0 -212 -150 -362
t-362 -150h-1195q-211 0 -361 150t-151 362v853z" />
    <glyph glyph-name="uniE193" unicode="&#xe193;" 
d="M1195 1195v170h341v-853h-171v683h-170zM1026 512v171h170v-171h-170zM343 512v171h171v-171h-171zM341 1195v170h512v-512h-169v-170h-170v170h169v342h-342zM171 341h1536v1195h-1536v-1195zM-171 1365q1 212 151 362t361 150h1195q212 0 362 -150t150 -362v-853
q0 -212 -150 -362t-362 -150h-1195q-211 0 -361 150t-151 362v853z" />
    <glyph glyph-name="uniE194" unicode="&#xe194;" 
d="M1365 1365v-170h-512v-342h512v-170h-512l-170 170v342l170 170h512zM1731 1024q1 292 -207 499t-500 207t-498 -206q-208 -208 -208 -500t206 -499q208 -207 500 -207t499 206q207 208 208 500zM1905 515q-137 -233 -371 -371t-510 -138t-509 136t-371 371t-138 511
t137 509t371 371t510 138t509 -137t371 -371t138 -510t-137 -509z" />
    <glyph glyph-name="uniE195" unicode="&#xe195;" 
d="M1195 683v170h170v-170h-170zM683 683v682h512l170 -170v-171h-170v-171h-342v-170h-170zM311 1024q0 -292 207 -499t499 -207t499 206q207 208 208 500q0 292 -208 499t-498 207q-292 0 -500 -206q-208 -208 -207 -500zM0 1024q0 276 136 509t370 371t510 138t510 -137
t372 -371t136 -510q0 -276 -136 -509t-370 -371t-510 -138t-510 136t-370 371q-138 235 -138 511zM1195 1024v171h-342v-171h342z" />
    <glyph glyph-name="uniE197" unicode="&#xe197;" 
d="M853 341v512h342v-512h341l-512 -512l-512 512h341zM304 512q-136 0 -232 97t-96 225t73 218q73 91 185 115q-3 27 -4 64q0 261 184 444t444 184q186 0 340 -101t232 -268q77 24 154 24q205 0 350 -147t145 -353t-145 -354t-350 -148h-219v512h-682v-512h-379z" />
    <glyph glyph-name="uniE198" unicode="&#xe198;" 
d="M1195 341v-512h-342v512h-341l512 512l512 -512h-341zM304 512q-136 0 -232 97t-96 225t73 218q73 91 185 115q-3 27 -4 64q0 261 184 444t444 184q186 0 340 -101t232 -268q77 24 154 24q205 0 350 -148t145 -352q1 -169 -103 -304t-264 -179l-688 688l-707 -707h-13z
" />
    <glyph glyph-name="uniE199" unicode="&#xe199;" 
d="M1195 341v-264l128 -77h-598l128 77v264h-682l460 512h-290l461 512h-290l512 569l512 -569h-290l461 -512h-290l460 -512h-682z" />
    <glyph glyph-name="uniE200" unicode="&#xe200;" 
d="M1024 2012q159 0 285 -96t171 -249q152 -10 257 -122t104 -265q0 -102 -49 -189t-137 -144q15 -55 16 -94q0 -126 -90 -216t-216 -89q-92 0 -170 51v-522l128 -77h-598l128 77v522q-75 -51 -185 -51t-201 90q-90 90 -90 215q0 39 7 65q-80 36 -129 111q-48 76 -48 166
q0 126 89 216q90 90 216 89q9 0 39 -3l-3 39q0 198 139 337t337 139z" />
  </font>
</defs>
</svg>
